<?xml version="1.0" encoding="UTF-8"?>
<svg width="17px" height="14px" viewBox="0 0 17 14" version="1.1" xmlns="http://www.w3.org/2000/svg" xmlns:xlink="http://www.w3.org/1999/xlink">
    <!-- Generator: Sketch 44.1 (41455) - http://www.bohemiancoding.com/sketch -->
    <title>githubalt</title>
    <desc>Created with Sketch.</desc>
    <defs></defs>
    <g id="home-3" stroke="none" stroke-width="1" fill="none" fill-rule="evenodd">
        <g id="iPad" transform="translate(-691.000000, -282.000000)" fill="#739CA5">
            <g id="github" transform="translate(691.000000, 282.000000)">
                <path d="M11.4754098,7.3442623 C11.7431688,7.3442623 11.977459,7.45901639 12.1782787,7.68852459 C12.3790984,7.91803279 12.517759,8.16666637 12.5942623,8.43442623 C12.7281427,8.83606557 12.7711754,9.24726761 12.7233607,9.66803279 C12.6755459,10.088798 12.4986345,10.4713115 12.192623,10.8155738 C11.9821202,11.045082 11.7430497,11.1598361 11.4754098,11.1598361 C11.1885246,11.1598361 10.9446721,11.045082 10.7438525,10.8155738 C10.5430328,10.5860656 10.394809,10.3374315 10.2991803,10.0696721 C10.2035516,9.66803279 10.1796451,9.25683075 10.227459,8.83606557 C10.2752729,8.4153004 10.442623,8.03278689 10.7295082,7.68852459 C10.9590164,7.45901639 11.2076509,7.3442623 11.4754098,7.3442623 Z M5.10655738,7.3442623 C5.37431723,7.3442623 5.60860656,7.45901639 5.80942623,7.68852459 C6.0102459,7.91803279 6.15846965,8.16666637 6.25409836,8.43442623 C6.36885246,8.83606557 6.40232211,9.24726761 6.3545082,9.66803279 C6.30668903,10.088798 6.12977675,10.4713115 5.82377049,10.8155738 C5.61338769,11.045082 5.37431723,11.1598361 5.10655738,11.1598361 C4.81967213,11.1598361 4.57581967,11.045082 4.375,10.8155738 C4.17418033,10.5860656 4.02595658,10.3374315 3.93032787,10.0696721 C3.83469916,9.66803279 3.81079264,9.25683075 3.85860656,8.83606557 C3.90642047,8.4153004 4.07377049,8.03278689 4.36065574,7.68852459 C4.59016393,7.45901639 4.83879752,7.3442623 5.10655738,7.3442623 Z M15.204918,3.8442623 C16.1038246,4.87704918 16.5532787,6.19672131 16.5532787,7.80327869 C16.5532787,9.18032787 16.352459,10.2800545 15.9508197,11.102459 C15.6829119,11.5997271 15.3290873,12.0348361 14.8893443,12.4077869 C14.4493841,12.7807377 13.9808054,13.0628418 13.4836066,13.2540984 C13.2349721,13.3497271 12.9719951,13.4405738 12.6946721,13.5266393 C12.4173491,13.6127049 12.1161196,13.6844262 11.7909836,13.7418033 C11.4658476,13.7991803 11.1646181,13.8422131 10.8872951,13.8709016 C10.6099178,13.8995902 10.34694,13.9234971 10.0983607,13.942623 C9.84967454,13.9617488 9.58669669,13.976093 9.30942623,13.9856557 C9.03205509,13.9952184 8.74038871,14 8.43442623,14 L7.68852459,14 C7.45901639,14 7.23907133,13.9904373 7.02868852,13.9713115 C6.81830572,13.9521856 6.58879752,13.9378414 6.34016393,13.9282787 C6.09153035,13.918716 5.83333363,13.8948086 5.56557377,13.8565574 C5.04918033,13.7991803 4.54235002,13.6939889 4.04508197,13.5409836 C3.35655738,13.3497271 2.69193974,13.0628418 2.05122951,12.6803279 C1.41051927,12.2978139 0.937158616,11.7718578 0.631147541,11.102459 C0.210382368,10.2800545 0,9.18032787 0,7.80327869 C0,6.23497297 0.449453698,4.91530084 1.34836066,3.8442623 C1.17622951,3.30874346 1.09016393,2.75409836 1.09016393,2.18032787 C1.09016393,1.41530084 1.26229508,0.68852459 1.60655738,0 C2.33333319,0 2.95491803,0.133880365 3.47131148,0.401639344 C3.75819672,0.535519709 4.0546451,0.702868852 4.36065574,0.903688525 C4.66666637,1.1045082 5.00136641,1.33879752 5.3647541,1.60655738 C6.34016393,1.37704918 7.36338769,1.26229508 8.43442623,1.26229508 C9.39072293,1.26229508 10.3183189,1.36748605 11.2172131,1.57786885 C11.8866114,1.04235002 12.5081967,0.640709799 13.0819672,0.37295082 C13.5983607,0.124316356 14.2295082,0 14.9754098,0 C15.3005459,0.707650857 15.4631148,1.43442623 15.4631148,2.18032787 C15.4631148,2.75409836 15.3770492,3.30874346 15.204918,3.8442623 Z M13.1967213,11.8196721 C13.5218573,11.5519127 13.7896181,11.2028689 14,10.772541 C14.2103819,10.3422131 14.3155738,9.84016393 14.3155738,9.26639344 C14.3155738,8.46310819 14.0860656,7.78414629 13.6270492,7.2295082 C13.2062836,6.6748631 12.5942623,6.39754098 11.7909836,6.39754098 C11.6379787,6.39754098 11.4036885,6.41188525 11.0881148,6.44057377 C10.772541,6.4692623 10.3565574,6.52185822 9.84016393,6.59836066 C9.61065574,6.63661231 9.36202215,6.66530084 9.0942623,6.68442623 C8.82650244,6.70355162 8.55874346,6.71311475 8.29098361,6.71311475 C8.00409836,6.71311475 7.72677625,6.70355162 7.45901639,6.68442623 C7.19125654,6.66530084 6.94262295,6.63661231 6.71311475,6.59836066 C6.2158467,6.52185822 5.80942623,6.4692623 5.49385246,6.44057377 C5.17827869,6.41188525 4.94398936,6.39754098 4.79098361,6.39754098 C3.98770492,6.39754098 3.36612007,6.6748631 2.92622951,7.2295082 C2.46721311,7.7841533 2.23770492,8.46311475 2.23770492,9.26639344 C2.23770492,9.84016393 2.34289632,10.3422131 2.55327869,10.772541 C2.76366106,11.2028689 3.03142091,11.5519127 3.35655738,11.8196721 C3.70081967,12.0683092 4.10245902,12.2595658 4.56147541,12.3934426 C5.05876097,12.5464484 5.5273405,12.6468582 5.96721311,12.6946721 C6.40710412,12.742486 6.89480904,12.7663934 7.43032787,12.7663934 L9.12295082,12.7663934 C9.67759592,12.7663934 10.170082,12.742486 10.6004098,12.6946721 C11.0307377,12.6468582 11.4945361,12.5464484 11.9918033,12.3934426 C12.4508197,12.2595631 12.852459,12.0683057 13.1967213,11.8196721 Z" id="githubalt"></path>
            </g>
        </g>
    </g>
</svg>