<?xml version="1.0" encoding="UTF-8"?>
<svg width="13px" height="13px" viewBox="0 0 13 13" version="1.1" xmlns="http://www.w3.org/2000/svg" xmlns:xlink="http://www.w3.org/1999/xlink">
    <defs></defs>
    <g id="home-3" stroke="none" stroke-width="1" fill="none" fill-rule="evenodd">
        <g id="iPad" transform="translate(-720.000000, -282.000000)" fill="#000">
            <g id="linkedin" transform="translate(720.000000, 282.000000)">
                <path d="M0,3.61571125 L0,13 L2.87048832,13 L2.87048832,3.61571125 L0,3.61571125 Z M11.0127389,4.19532909 C10.479123,3.88251918 9.85350318,3.71691409 9.1358811,3.6985138 C8.41825902,3.68002086 7.77423893,3.79962482 7.20382166,4.05732484 L7.20382166,3.61571125 L4.30573248,3.61571125 L4.30573248,13 L7.20382166,13 L7.20382166,7.25902335 L8.39065817,6.67940552 C8.53786298,6.60580354 8.74026865,6.56900212 8.99787686,6.56900212 C9.25537304,6.56900212 9.4577787,6.61500326 9.60509554,6.70700637 C9.69709781,6.76220807 9.79830149,6.88181203 9.90870488,7.06581741 C10.0191083,7.24982279 10.07431,7.41542789 10.07431,7.5626327 L10.07431,13 L12.9723992,13 L12.9723992,7.5626327 C12.9723992,6.90021231 12.7883929,6.25159236 12.4203822,5.61677282 C12.0523714,4.98195329 11.583157,4.50813899 11.0127389,4.19532909 Z M1.43524416,0 C1.03043157,0 0.690021231,0.138004246 0.414012739,0.414012739 C0.138004246,0.690021231 0,1.03043114 0,1.43524416 C0,1.84005634 0.138004246,2.18506695 0.414012739,2.47027601 C0.690021231,2.75548506 1.03043157,2.89808917 1.43524416,2.89808917 C1.84005634,2.89808917 2.18046709,2.75548506 2.45647558,2.47027601 C2.73248408,2.18506695 2.87048832,1.84005634 2.87048832,1.43524416 C2.87048832,1.03043114 2.73248408,0.690021231 2.45647558,0.414012739 C2.18046709,0.138004246 1.84005634,0 1.43524416,0 Z"></path>
            </g>
        </g>
    </g>
</svg>