<?xml version="1.0" encoding="UTF-8"?>
<svg width="272px" height="126px" viewBox="0 0 272 126" version="1.1" xmlns="http://www.w3.org/2000/svg" xmlns:xlink="http://www.w3.org/1999/xlink">
    <!-- Generator: Sketch 44.1 (41455) - http://www.bohemiancoding.com/sketch -->
    <title>DIAMOND svg</title>
    <desc>Created with Sketch.</desc>
    <defs>
        <polygon id="path-1" points="4 23 136 2.03645833 268 23 268 96 136 120.19494 4 96"></polygon>
        <filter x="-2.7%" y="-4.2%" width="105.3%" height="111.8%" filterUnits="objectBoundingBox" id="filter-2">
            <feOffset dx="0" dy="2" in="SourceAlpha" result="shadowOffsetOuter1"></feOffset>
            <feGaussianBlur stdDeviation="2" in="shadowOffsetOuter1" result="shadowBlurOuter1"></feGaussianBlur>
            <feComposite in="shadowBlurOuter1" in2="SourceAlpha" operator="out" result="shadowBlurOuter1"></feComposite>
            <feColorMatrix values="0 0 0 0 0   0 0 0 0 0   0 0 0 0 0  0 0 0 0.241791214 0" type="matrix" in="shadowBlurOuter1"></feColorMatrix>
        </filter>
    </defs>
    <g id="home-3" stroke="none" stroke-width="1" fill="none" fill-rule="evenodd">
        <g id="iPad" transform="translate(-238.000000, -211.000000)">
            <g id="DIAMOND-svg" transform="translate(238.000000, 211.000000)">
                <g id="Rectangle-8">
                    <use fill="black" fill-opacity="1" filter="url(#filter-2)" xlink:href="#path-1"></use>
                    <use fill="#FFFFFF" fill-rule="evenodd" xlink:href="#path-1"></use>
                    <path stroke="#B27E7E" stroke-width="6" d="M7,25.5611534 L7,93.4999057 L136,117.144961 L265,93.4999057 L265,25.5611534 L136,5.07405591 L7,25.5611534 Z"></path>
                    <path stroke="#FFFFFF" stroke-width="5" d="M6.5,25.1342945 L6.5,93.9165881 L136,117.653291 L265.5,93.9165881 L265.5,25.1342945 L136,4.56778964 L6.5,25.1342945 Z"></path>
                </g>
                <path d="M34.7,36.396 L34.7,49.994 C34.7,50.5660029 34.669667,51.0946642 34.609,51.58 C34.548333,52.0653358 34.4486674,52.4813316 34.31,52.828 C34.0846655,53.3826694 33.777002,53.8896644 33.387,54.349 C32.9969981,54.8083356 32.5420026,55.1983317 32.022,55.519 C31.5019974,55.8396683 30.9256698,56.0909991 30.293,56.273 C29.6603302,56.4550009 28.9973368,56.546 28.304,56.546 C26.2066562,56.546 24.4993399,55.5840096 23.182,53.66 L26.51,50.254 C26.5966671,50.8433363 26.7873319,51.3113316 27.082,51.658 C27.3766681,52.0046684 27.7406645,52.178 28.174,52.178 C29.1273381,52.178 29.604,51.4240075 29.604,49.916 L29.604,36.396 L34.7,36.396 Z M49.494,48.72 L47.206,42.194 L44.918,48.72 L49.494,48.72 Z M50.846,52.594 L43.566,52.594 L42.396,56 L36.962,56 L44.424,36.396 L49.988,36.396 L57.45,56 L52.016,56 L50.846,52.594 Z M59.686,56 L59.686,36.396 L64.782,36.396 L74.194,48.382 L74.194,36.396 L79.264,36.396 L79.264,56 L74.194,56 L64.782,44.014 L64.782,56 L59.686,56 Z M97.308,51.684 L98.478,51.684 C99.3620044,51.684 100.150663,51.5453347 100.844,51.268 C101.537337,50.9906653 102.122331,50.6093358 102.599,50.124 C103.075669,49.6386642 103.439665,49.0623367 103.691,48.395 C103.942335,47.7276633 104.068,46.9953373 104.068,46.198 C104.068,45.4179961 103.938001,44.6900034 103.678,44.014 C103.417999,43.3379966 103.049669,42.7573358 102.573,42.272 C102.096331,41.7866642 101.511337,41.4053347 100.818,41.128 C100.124663,40.8506653 99.344671,40.712 98.478,40.712 L97.308,40.712 L97.308,51.684 Z M92.212,36.396 L99.752,36.396 C101.086673,36.396 102.338994,36.664664 103.509,37.202 C104.679006,37.739336 105.701662,38.4543289 106.577,39.347 C107.452338,40.2396711 108.141331,41.2796607 108.644,42.467 C109.146669,43.6543393 109.398,44.8979935 109.398,46.198 C109.398,47.4806731 109.151002,48.7156607 108.657,49.903 C108.162998,51.0903393 107.478338,52.1346622 106.603,53.036 C105.727662,53.9373378 104.705006,54.656664 103.535,55.194 C102.364994,55.731336 101.104007,56 99.752,56 L92.212,56 L92.212,36.396 Z M117.744,45.158 L118.706,45.158 C119.711338,45.158 120.482664,44.9500021 121.02,44.534 C121.557336,44.1179979 121.826,43.5200039 121.826,42.74 C121.826,41.9599961 121.557336,41.3620021 121.02,40.946 C120.482664,40.5299979 119.711338,40.322 118.706,40.322 L117.744,40.322 L117.744,45.158 Z M128.95,56 L122.606,56 L117.744,48.46 L117.744,56 L112.648,56 L112.648,36.396 L120.578,36.396 C121.670005,36.396 122.623329,36.5563317 123.438,36.877 C124.252671,37.1976683 124.924331,37.6353306 125.453,38.19 C125.981669,38.7446694 126.380332,39.3859964 126.649,40.114 C126.917668,40.8420036 127.052,41.6219958 127.052,42.454 C127.052,43.9446741 126.692337,45.153662 125.973,46.081 C125.253663,47.008338 124.192007,47.636665 122.788,47.966 L128.95,56 Z M142.236,40.712 L136.178,40.712 L136.178,43.988 L141.898,43.988 L141.898,48.304 L136.178,48.304 L136.178,51.684 L142.236,51.684 L142.236,56 L131.082,56 L131.082,36.396 L142.236,36.396 L142.236,40.712 Z M149.178,36.396 L152.558,49.058 L156.718,36.396 L160.774,36.396 L164.934,49.058 L168.314,36.396 L173.644,36.396 L167.794,56 L162.594,56 L158.746,44.638 L154.898,56 L149.698,56 L143.848,36.396 L149.178,36.396 Z M175.698,56 L175.698,36.396 L180.794,36.396 L190.206,48.382 L190.206,36.396 L195.276,36.396 L195.276,56 L190.206,56 L180.794,44.014 L180.794,56 L175.698,56 Z M204.48,36.396 L204.48,56 L199.384,56 L199.384,36.396 L204.48,36.396 Z M219.248,48.72 L216.96,42.194 L214.672,48.72 L219.248,48.72 Z M220.6,52.594 L213.32,52.594 L212.15,56 L206.716,56 L214.178,36.396 L219.742,36.396 L227.204,56 L221.77,56 L220.6,52.594 Z M234.536,44.482 L240.75,36.396 L247.042,36.396 L239.268,45.678 L247.77,56 L241.166,56 L234.536,47.498 L234.536,56 L229.44,56 L229.44,36.396 L234.536,36.396 L234.536,44.482 Z" id="JAN-DREWNIAK" fill="#608893"></path>
                <path d="M26.85,75.444 L26.85,81.184 C26.85,81.4920015 26.8616665,81.8069984 26.885,82.129 C26.9083334,82.4510016 26.9783327,82.7426654 27.095,83.004 C27.2116672,83.2653346 27.3959987,83.4776658 27.648,83.641 C27.9000013,83.8043341 28.2546644,83.886 28.712,83.886 C29.1693356,83.886 29.5216654,83.8043341 29.769,83.641 C30.0163346,83.4776658 30.2006661,83.2653346 30.322,83.004 C30.4433339,82.7426654 30.5156665,82.4510016 30.539,82.129 C30.5623334,81.8069984 30.574,81.4920015 30.574,81.184 L30.574,75.444 L33.304,75.444 L33.304,81.562 C33.304,83.2046749 32.9283371,84.4039962 32.177,85.16 C31.4256629,85.9160038 30.2706745,86.294 28.712,86.294 C27.1533255,86.294 25.9960038,85.9160038 25.24,85.16 C24.4839962,84.4039962 24.106,83.2046749 24.106,81.562 L24.106,75.444 L26.85,75.444 Z M38.94,80.372 L35.65,75.444 L39.038,75.444 L40.466,78.174 L42.23,75.444 L45.618,75.444 L42.132,80.372 L46.066,86 L42.72,86 L40.606,82.556 L38.128,86 L34.81,86 L38.94,80.372 Z M55.476,83.676 L56.106,83.676 C56.5820024,83.676 57.0066648,83.6013341 57.38,83.452 C57.7533352,83.3026659 58.0683321,83.0973346 58.325,82.836 C58.581668,82.5746654 58.777666,82.2643351 58.913,81.905 C59.048334,81.5456649 59.116,81.1513355 59.116,80.722 C59.116,80.3019979 59.0460007,79.9100018 58.906,79.546 C58.7659993,79.1819982 58.567668,78.8693346 58.311,78.608 C58.0543321,78.3466654 57.7393352,78.1413341 57.366,77.992 C56.9926648,77.8426659 56.572669,77.768 56.106,77.768 L55.476,77.768 L55.476,83.676 Z M52.732,75.444 L56.792,75.444 C57.5106703,75.444 58.1849969,75.5886652 58.815,75.878 C59.4450032,76.1673348 59.9956643,76.5523309 60.467,77.033 C60.9383357,77.5136691 61.309332,78.0736635 61.58,78.713 C61.850668,79.3523365 61.986,80.0219965 61.986,80.722 C61.986,81.4126701 61.8530013,82.0776635 61.587,82.717 C61.3209987,83.3563365 60.9523357,83.9186642 60.481,84.404 C60.0096643,84.8893358 59.4590032,85.2766652 58.829,85.566 C58.1989969,85.8553348 57.5200037,86 56.792,86 L52.732,86 L52.732,75.444 Z M70.142,77.768 L66.88,77.768 L66.88,79.532 L69.96,79.532 L69.96,81.856 L66.88,81.856 L66.88,83.676 L70.142,83.676 L70.142,86 L64.136,86 L64.136,75.444 L70.142,75.444 L70.142,77.768 Z M78.312,78.146 C78.0133319,77.9033321 77.7146682,77.7236672 77.416,77.607 C77.1173319,77.4903327 76.8280014,77.432 76.548,77.432 C76.1933316,77.432 75.9040011,77.5159992 75.68,77.684 C75.4559989,77.8520008 75.344,78.071332 75.344,78.342 C75.344,78.5286676 75.3999995,78.6826661 75.512,78.804 C75.6240006,78.9253339 75.7709991,79.0303329 75.953,79.119 C76.1350009,79.2076671 76.3403322,79.2846663 76.569,79.35 C76.7976678,79.4153337 77.0239989,79.485333 77.248,79.56 C78.1440045,79.8586682 78.7996646,80.2576642 79.215,80.757 C79.6303354,81.2563358 79.838,81.9073293 79.838,82.71 C79.838,83.251336 79.7470009,83.7413311 79.565,84.18 C79.3829991,84.6186689 79.1170018,84.9943318 78.767,85.307 C78.4169983,85.6196682 77.9876692,85.8623325 77.479,86.035 C76.9703308,86.2076675 76.3940032,86.294 75.75,86.294 C74.4153267,86.294 73.1786724,85.8973373 72.04,85.104 L73.216,82.892 C73.6266687,83.2560018 74.0326647,83.5266658 74.434,83.704 C74.8353354,83.8813342 75.2319981,83.97 75.624,83.97 C76.0720023,83.97 76.4056656,83.8673344 76.625,83.662 C76.8443345,83.4566656 76.954,83.2233346 76.954,82.962 C76.954,82.8033325 76.9260003,82.6656672 76.87,82.549 C76.8139997,82.4323327 76.7206673,82.3250005 76.59,82.227 C76.4593327,82.1289995 76.2890011,82.0380004 76.079,81.954 C75.868999,81.8699996 75.6146682,81.7766672 75.316,81.674 C74.9613316,81.5619994 74.6136684,81.438334 74.273,81.303 C73.9323317,81.167666 73.6290014,80.9880011 73.363,80.764 C73.0969987,80.5399989 72.8823342,80.2576684 72.719,79.917 C72.5556659,79.5763316 72.474,79.1446693 72.474,78.622 C72.474,78.0993307 72.5603325,77.6256688 72.733,77.201 C72.9056676,76.7763312 73.1483318,76.4123348 73.461,76.109 C73.7736683,75.8056651 74.1563311,75.5700008 74.609,75.402 C75.061669,75.2339992 75.5679972,75.15 76.128,75.15 C76.6506693,75.15 77.1966638,75.2223326 77.766,75.367 C78.3353362,75.5116674 78.8813307,75.7239986 79.404,76.004 L78.312,78.146 Z M84.704,75.444 L84.704,86 L81.96,86 L81.96,75.444 L84.704,75.444 Z M92.454,80.092 L97.9,80.092 C97.9,80.6520028 97.8766669,81.1606644 97.83,81.618 C97.7833331,82.0753356 97.6900007,82.499998 97.55,82.892 C97.3539991,83.4426694 97.0880017,83.9303312 96.752,84.355 C96.4159984,84.7796688 96.021669,85.1343319 95.569,85.419 C95.1163311,85.7036681 94.6193361,85.9206659 94.078,86.07 C93.536664,86.2193341 92.9673364,86.294 92.37,86.294 C91.5486626,86.294 90.7996701,86.158668 90.123,85.888 C89.44633,85.617332 88.8653358,85.2370024 88.38,84.747 C87.8946643,84.2569975 87.5166681,83.6690034 87.246,82.983 C86.975332,82.2969966 86.84,81.5386708 86.84,80.708 C86.84,79.8866626 86.9729987,79.1330034 87.239,78.447 C87.5050014,77.7609966 87.8829976,77.1753358 88.373,76.69 C88.8630025,76.2046642 89.4533299,75.826668 90.144,75.556 C90.8346702,75.285332 91.6046625,75.15 92.454,75.15 C93.5553389,75.15 94.5213292,75.3879976 95.352,75.864 C96.1826709,76.3400024 96.8406643,77.0773283 97.326,78.076 L94.722,79.154 C94.4793322,78.5753304 94.1643353,78.1600013 93.777,77.908 C93.3896648,77.6559987 92.9486692,77.53 92.454,77.53 C92.0433313,77.53 91.6700017,77.6069992 91.334,77.761 C90.9979984,77.9150008 90.7110012,78.1343319 90.473,78.419 C90.2349989,78.7036681 90.0483341,79.0466647 89.913,79.448 C89.777666,79.8493353 89.71,80.2973309 89.71,80.792 C89.71,81.2400022 89.7683328,81.6553314 89.885,82.038 C90.0016673,82.4206686 90.1766655,82.7519986 90.41,83.032 C90.6433345,83.3120014 90.932665,83.5289992 91.278,83.683 C91.6233351,83.8370008 92.0246644,83.914 92.482,83.914 C92.7526681,83.914 93.0139988,83.883667 93.266,83.823 C93.5180013,83.762333 93.7443324,83.664334 93.945,83.529 C94.1456677,83.393666 94.3113327,83.2186677 94.442,83.004 C94.5726674,82.7893323 94.6613331,82.5280015 94.708,82.22 L92.454,82.22 L92.454,80.092 Z M100.036,86 L100.036,75.444 L102.78,75.444 L107.848,81.898 L107.848,75.444 L110.578,75.444 L110.578,86 L107.848,86 L102.78,79.546 L102.78,86 L100.036,86 Z M118.252,79.826 L121.108,79.826 L121.108,76.97 L122.9,76.97 L122.9,79.826 L125.742,79.826 L125.742,81.618 L122.9,81.618 L122.9,84.474 L121.108,84.474 L121.108,81.618 L118.252,81.618 L118.252,79.826 Z M136.174,83.676 L136.804,83.676 C137.280002,83.676 137.704665,83.6013341 138.078,83.452 C138.451335,83.3026659 138.766332,83.0973346 139.023,82.836 C139.279668,82.5746654 139.475666,82.2643351 139.611,81.905 C139.746334,81.5456649 139.814,81.1513355 139.814,80.722 C139.814,80.3019979 139.744001,79.9100018 139.604,79.546 C139.463999,79.1819982 139.265668,78.8693346 139.009,78.608 C138.752332,78.3466654 138.437335,78.1413341 138.064,77.992 C137.690665,77.8426659 137.270669,77.768 136.804,77.768 L136.174,77.768 L136.174,83.676 Z M133.43,75.444 L137.49,75.444 C138.20867,75.444 138.882997,75.5886652 139.513,75.878 C140.143003,76.1673348 140.693664,76.5523309 141.165,77.033 C141.636336,77.5136691 142.007332,78.0736635 142.278,78.713 C142.548668,79.3523365 142.684,80.0219965 142.684,80.722 C142.684,81.4126701 142.551001,82.0776635 142.285,82.717 C142.018999,83.3563365 141.650336,83.9186642 141.179,84.404 C140.707664,84.8893358 140.157003,85.2766652 139.527,85.566 C138.896997,85.8553348 138.218004,86 137.49,86 L133.43,86 L133.43,75.444 Z M150.84,77.768 L147.578,77.768 L147.578,79.532 L150.658,79.532 L150.658,81.856 L147.578,81.856 L147.578,83.676 L150.84,83.676 L150.84,86 L144.834,86 L144.834,75.444 L150.84,75.444 L150.84,77.768 Z M155.09,75.444 L157.638,81.87 L160.2,75.444 L163.182,75.444 L158.73,86 L156.546,86 L152.108,75.444 L155.09,75.444 Z M170.694,77.768 L167.432,77.768 L167.432,79.532 L170.512,79.532 L170.512,81.856 L167.432,81.856 L167.432,83.676 L170.694,83.676 L170.694,86 L164.688,86 L164.688,75.444 L170.694,75.444 L170.694,77.768 Z M175.812,75.444 L175.812,83.676 L179.102,83.676 L179.102,86 L173.068,86 L173.068,75.444 L175.812,75.444 Z M183.1,80.722 C183.1,81.1420021 183.179333,81.5293316 183.338,81.884 C183.496668,82.2386684 183.711332,82.5466654 183.982,82.808 C184.252668,83.0693346 184.567665,83.2723326 184.927,83.417 C185.286335,83.5616674 185.666665,83.634 186.068,83.634 C186.469335,83.634 186.849665,83.5616674 187.209,83.417 C187.568335,83.2723326 187.885665,83.0693346 188.161,82.808 C188.436335,82.5466654 188.653333,82.2386684 188.812,81.884 C188.970668,81.5293316 189.05,81.1420021 189.05,80.722 C189.05,80.3019979 188.970668,79.9146684 188.812,79.56 C188.653333,79.2053316 188.436335,78.8973346 188.161,78.636 C187.885665,78.3746654 187.568335,78.1716674 187.209,78.027 C186.849665,77.8823326 186.469335,77.81 186.068,77.81 C185.666665,77.81 185.286335,77.8823326 184.927,78.027 C184.567665,78.1716674 184.252668,78.3746654 183.982,78.636 C183.711332,78.8973346 183.496668,79.2053316 183.338,79.56 C183.179333,79.9146684 183.1,80.3019979 183.1,80.722 Z M180.23,80.722 C180.23,79.9379961 180.374665,79.20767 180.664,78.531 C180.953335,77.8543299 181.354664,77.2640025 181.868,76.76 C182.381336,76.2559975 182.994997,75.8616681 183.709,75.577 C184.423004,75.2923319 185.209329,75.15 186.068,75.15 C186.917338,75.15 187.70133,75.2923319 188.42,75.577 C189.13867,75.8616681 189.756998,76.2559975 190.275,76.76 C190.793003,77.2640025 191.196665,77.8543299 191.486,78.531 C191.775335,79.20767 191.92,79.9379961 191.92,80.722 C191.92,81.5060039 191.775335,82.2363299 191.486,82.913 C191.196665,83.58967 190.793003,84.1799975 190.275,84.684 C189.756998,85.1880025 189.13867,85.5823319 188.42,85.867 C187.70133,86.1516681 186.917338,86.294 186.068,86.294 C185.209329,86.294 184.423004,86.1516681 183.709,85.867 C182.994997,85.5823319 182.381336,85.1880025 181.868,84.684 C181.354664,84.1799975 180.953335,83.58967 180.664,82.913 C180.374665,82.2363299 180.23,81.5060039 180.23,80.722 Z M196.8,80.288 L197.71,80.288 C198.718005,80.288 199.222,79.8493377 199.222,78.972 C199.222,78.0946623 198.718005,77.656 197.71,77.656 L196.8,77.656 L196.8,80.288 Z M196.8,86 L194.056,86 L194.056,75.444 L198.424,75.444 C199.609339,75.444 200.516997,75.7519969 201.147,76.368 C201.777003,76.9840031 202.092,77.8519944 202.092,78.972 C202.092,80.0920056 201.777003,80.9599969 201.147,81.576 C200.516997,82.1920031 199.609339,82.5 198.424,82.5 L196.8,82.5 L196.8,86 Z M203.472,86 L205.264,75.444 L207.98,75.444 L210.094,81.072 L212.194,75.444 L214.91,75.444 L216.702,86 L213.972,86 L213.062,79.924 L210.57,86 L209.478,86 L207.112,79.924 L206.202,86 L203.472,86 Z M224.844,77.768 L221.582,77.768 L221.582,79.532 L224.662,79.532 L224.662,81.856 L221.582,81.856 L221.582,83.676 L224.844,83.676 L224.844,86 L218.838,86 L218.838,75.444 L224.844,75.444 L224.844,77.768 Z M227.218,86 L227.218,75.444 L229.962,75.444 L235.03,81.898 L235.03,75.444 L237.76,75.444 L237.76,86 L235.03,86 L229.962,79.546 L229.962,86 L227.218,86 Z M244.376,77.768 L244.376,86 L241.632,86 L241.632,77.768 L239.378,77.768 L239.378,75.444 L246.63,75.444 L246.63,77.768 L244.376,77.768 Z" id="UX-DESIGN-+-DEVELOPM" fill="#608893"></path>
                <path d="M23.5,65.5 L247.759995,65.5" id="Line" stroke="#AA8383" stroke-linecap="square"></path>
            </g>
        </g>
    </g>
</svg>