<?xml version="1.0" encoding="UTF-8"?>
<svg width="297px" height="133px" viewBox="0 0 297 133" version="1.1" xmlns="http://www.w3.org/2000/svg" xmlns:xlink="http://www.w3.org/1999/xlink">
    <!-- Generator: Sketch 44.1 (41455) - http://www.bohemiancoding.com/sketch -->
    <title>logo</title>
    <desc>Created with Sketch.</desc>
    <defs></defs>
    <g id="home-3" stroke="none" stroke-width="1" fill="none" fill-rule="evenodd">
        <g id="iPhone-7" transform="translate(-35.000000, -147.000000)">
            <g id="logo" transform="translate(35.000000, 147.000000)">
                <rect id="Rectangle-8" fill="#FFFFFF" x="42" y="10" width="110" height="59"></rect>
                <rect id="Rectangle-8" fill="#FFFFFF" x="5" y="37" width="283" height="59"></rect>
                <path d="M48.6738281,108.429688 L48.6738281,116.603516 C48.6738281,117.769537 48.8642559,118.622068 49.2451172,119.161133 C49.8134794,119.940434 50.6132761,120.330078 51.6445312,120.330078 C52.6816458,120.330078 53.4843722,119.940434 54.0527344,119.161133 C54.4335957,118.639646 54.6240234,117.787115 54.6240234,116.603516 L54.6240234,108.429688 L56.671875,108.429688 L56.671875,117.166016 C56.671875,118.59571 56.226567,119.773433 55.3359375,120.699219 C54.3339794,121.730474 53.1035229,122.246094 51.6445312,122.246094 C50.1855396,122.246094 48.9580128,121.730474 47.9619141,120.699219 C47.0712846,119.773433 46.6259766,118.59571 46.6259766,117.166016 L46.6259766,108.429688 L48.6738281,108.429688 Z M62.7626953,114.907227 L59.0273438,108.429688 L61.3564453,108.429688 L63.9492188,113.026367 L66.6738281,108.429688 L69.0205078,108.429688 L65.109375,114.907227 L69.2138672,122 L66.9199219,122 L63.9140625,116.805664 L60.8203125,122 L58.5,122 L62.7626953,114.907227 Z M76.5966797,122 L76.5966797,108.429688 L79.4443359,108.429688 C80.8095771,108.429688 81.8876914,108.564452 82.6787109,108.833984 C83.5283246,109.097658 84.2988247,109.545895 84.9902344,110.178711 C86.390632,111.456061 87.0908203,113.134755 87.0908203,115.214844 C87.0908203,117.300792 86.3613354,118.988275 84.9023438,120.277344 C84.1699182,120.921878 83.4023478,121.370116 82.5996094,121.62207 C81.8496056,121.874025 80.7861397,122 79.4091797,122 L76.5966797,122 Z M78.6445312,120.075195 L79.5673828,120.075195 C80.4873093,120.075195 81.2519501,119.978517 81.8613281,119.785156 C82.4707062,119.580077 83.0214819,119.254885 83.5136719,118.80957 C84.5214894,117.889644 85.0253906,116.691414 85.0253906,115.214844 C85.0253906,113.726555 84.5273487,112.519536 83.53125,111.59375 C82.6347611,110.767574 81.3134853,110.354492 79.5673828,110.354492 L78.6445312,110.354492 L78.6445312,120.075195 Z M97.0839844,118.185547 L90.9492188,118.185547 C91.0019534,118.888675 91.2304667,119.44824 91.6347656,119.864258 C92.0390645,120.274416 92.557614,120.479492 93.1904297,120.479492 C93.6826196,120.479492 94.0898421,120.362306 94.4121094,120.12793 C94.7285172,119.893554 95.0888652,119.459964 95.4931641,118.827148 L97.1630859,119.758789 C96.9052721,120.198244 96.6328139,120.574705 96.3457031,120.888184 C96.0585923,121.201662 95.7509782,121.459472 95.4228516,121.661621 C95.0947249,121.863771 94.7402363,122.011718 94.359375,122.105469 C93.9785137,122.199219 93.5654319,122.246094 93.1201172,122.246094 C91.8427671,122.246094 90.8173867,121.835942 90.0439453,121.015625 C89.2705039,120.189449 88.8837891,119.093757 88.8837891,117.728516 C88.8837891,116.374993 89.2587853,115.279301 90.0087891,114.441406 C90.7646522,113.61523 91.7665953,113.202148 93.0146484,113.202148 C94.2744204,113.202148 95.2705042,113.603512 96.0029297,114.40625 C96.7294958,115.203129 97.0927734,116.30761 97.0927734,117.719727 L97.0839844,118.185547 Z M95.0537109,116.568359 C94.7783189,115.513667 94.1132865,114.986328 93.0585938,114.986328 C92.8183582,114.986328 92.5927745,115.022949 92.3818359,115.096191 C92.1708974,115.169434 91.9790048,115.274902 91.8061523,115.412598 C91.6332999,115.550294 91.4853522,115.715819 91.3623047,115.90918 C91.2392572,116.10254 91.1455081,116.322264 91.0810547,116.568359 L95.0537109,116.568359 Z M104.220703,114.898438 L102.585938,115.768555 C102.328124,115.241208 102.008791,114.977539 101.62793,114.977539 C101.446288,114.977539 101.291016,115.037597 101.162109,115.157715 C101.033202,115.277833 100.96875,115.43164 100.96875,115.619141 C100.96875,115.947267 101.349606,116.272459 102.111328,116.594727 C103.160161,117.045901 103.866209,117.461912 104.229492,117.842773 C104.592775,118.223635 104.774414,118.736325 104.774414,119.380859 C104.774414,120.207035 104.46973,120.898435 103.860352,121.455078 C103.268552,121.982425 102.553715,122.246094 101.71582,122.246094 C100.280266,122.246094 99.2636749,121.545905 98.6660156,120.145508 L100.353516,119.363281 C100.587892,119.77344 100.766601,120.034179 100.889648,120.145508 C101.129884,120.368165 101.416991,120.479492 101.750977,120.479492 C102.418949,120.479492 102.75293,120.174808 102.75293,119.56543 C102.75293,119.213865 102.49512,118.885744 101.979492,118.581055 C101.780272,118.481445 101.581056,118.384766 101.381836,118.291016 C101.182616,118.197265 100.98047,118.100586 100.775391,118.000977 C100.201169,117.719725 99.7968762,117.438478 99.5625,117.157227 C99.2636704,116.799803 99.1142578,116.339847 99.1142578,115.777344 C99.1142578,115.033199 99.3691381,114.417971 99.8789062,113.931641 C100.400393,113.44531 101.033199,113.202148 101.777344,113.202148 C102.873052,113.202148 103.687497,113.767572 104.220703,114.898438 Z M108.527344,113.439453 L108.527344,122 L106.549805,122 L106.549805,113.439453 L108.527344,113.439453 Z M106.250977,109.879883 C106.250977,109.534178 106.376952,109.235353 106.628906,108.983398 C106.880861,108.731444 107.182615,108.605469 107.53418,108.605469 C107.891603,108.605469 108.196288,108.731444 108.448242,108.983398 C108.700197,109.229493 108.826172,109.531248 108.826172,109.888672 C108.826172,110.246096 108.700197,110.55078 108.448242,110.802734 C108.202147,111.054689 107.900392,111.180664 107.542969,111.180664 C107.185545,111.180664 106.880861,111.054689 106.628906,110.802734 C106.376952,110.55078 106.250977,110.243166 106.250977,109.879883 Z M119.311523,121.797852 C119.311523,122.20215 119.29834,122.558104 119.271973,122.865723 C119.245605,123.173341 119.208985,123.444335 119.162109,123.678711 C119.021484,124.323245 118.746096,124.876951 118.335938,125.339844 C117.562496,126.230473 116.49903,126.675781 115.145508,126.675781 C114.002924,126.675781 113.062504,126.368167 112.324219,125.75293 C111.562496,125.120114 111.123047,124.244146 111.005859,123.125 L112.992188,123.125 C113.06836,123.546877 113.194335,123.872069 113.370117,124.100586 C113.780275,124.633792 114.377926,124.900391 115.163086,124.900391 C116.610359,124.900391 117.333984,124.012704 117.333984,122.237305 L117.333984,121.041992 C116.548824,121.844731 115.64356,122.246094 114.618164,122.246094 C113.452143,122.246094 112.497074,121.824223 111.75293,120.980469 C111.002926,120.124996 110.62793,119.05567 110.62793,117.772461 C110.62793,116.524408 110.976559,115.463872 111.673828,114.59082 C112.423832,113.665034 113.414056,113.202148 114.644531,113.202148 C115.722662,113.202148 116.619137,113.603512 117.333984,114.40625 L117.333984,113.439453 L119.311523,113.439453 L119.311523,121.797852 Z M117.413086,117.737305 C117.413086,116.905269 117.190432,116.240237 116.745117,115.742188 C116.293943,115.232419 115.7168,114.977539 115.013672,114.977539 C114.263668,114.977539 113.671877,115.255857 113.238281,115.8125 C112.845701,116.310549 112.649414,116.955074 112.649414,117.746094 C112.649414,118.525395 112.845701,119.16406 113.238281,119.662109 C113.666018,120.207034 114.257809,120.479492 115.013672,120.479492 C115.769535,120.479492 116.367185,120.204104 116.806641,119.65332 C117.21094,119.155271 117.413086,118.516605 117.413086,117.737305 Z M121.807617,113.439453 L123.793945,113.439453 L123.793945,114.230469 C124.485355,113.544918 125.264644,113.202148 126.131836,113.202148 C127.127935,113.202148 127.904294,113.515622 128.460938,114.142578 C128.941409,114.675784 129.181641,115.545892 129.181641,116.75293 L129.181641,122 L127.195312,122 L127.195312,117.21875 C127.195312,116.374996 127.078126,115.791994 126.84375,115.469727 C126.615233,115.1416 126.199222,114.977539 125.595703,114.977539 C124.93945,114.977539 124.473634,115.194334 124.198242,115.62793 C123.92871,116.055666 123.793945,116.802729 123.793945,117.869141 L123.793945,122 L121.807617,122 L121.807617,113.439453 Z M136.854492,115.759766 L136.854492,114.125 L140.72168,114.125 L140.72168,110.328125 L142.347656,110.328125 L142.347656,114.125 L146.214844,114.125 L146.214844,115.759766 L142.347656,115.759766 L142.347656,119.556641 L140.72168,119.556641 L140.72168,115.759766 L136.854492,115.759766 Z M154.274414,122 L154.274414,108.429688 L157.12207,108.429688 C158.487312,108.429688 159.565426,108.564452 160.356445,108.833984 C161.206059,109.097658 161.976559,109.545895 162.667969,110.178711 C164.068366,111.456061 164.768555,113.134755 164.768555,115.214844 C164.768555,117.300792 164.03907,118.988275 162.580078,120.277344 C161.847653,120.921878 161.080082,121.370116 160.277344,121.62207 C159.52734,121.874025 158.463874,122 157.086914,122 L154.274414,122 Z M156.322266,120.075195 L157.245117,120.075195 C158.165044,120.075195 158.929684,119.978517 159.539062,119.785156 C160.148441,119.580077 160.699216,119.254885 161.191406,118.80957 C162.199224,117.889644 162.703125,116.691414 162.703125,115.214844 C162.703125,113.726555 162.205083,112.519536 161.208984,111.59375 C160.312496,110.767574 158.99122,110.354492 157.245117,110.354492 L156.322266,110.354492 L156.322266,120.075195 Z M174.761719,118.185547 L168.626953,118.185547 C168.679688,118.888675 168.908201,119.44824 169.3125,119.864258 C169.716799,120.274416 170.235348,120.479492 170.868164,120.479492 C171.360354,120.479492 171.767577,120.362306 172.089844,120.12793 C172.406252,119.893554 172.7666,119.459964 173.170898,118.827148 L174.84082,119.758789 C174.583007,120.198244 174.310548,120.574705 174.023438,120.888184 C173.736327,121.201662 173.428713,121.459472 173.100586,121.661621 C172.772459,121.863771 172.417971,122.011718 172.037109,122.105469 C171.656248,122.199219 171.243166,122.246094 170.797852,122.246094 C169.520501,122.246094 168.495121,121.835942 167.72168,121.015625 C166.948238,120.189449 166.561523,119.093757 166.561523,117.728516 C166.561523,116.374993 166.93652,115.279301 167.686523,114.441406 C168.442387,113.61523 169.44433,113.202148 170.692383,113.202148 C171.952155,113.202148 172.948239,113.603512 173.680664,114.40625 C174.40723,115.203129 174.770508,116.30761 174.770508,117.719727 L174.761719,118.185547 Z M172.731445,116.568359 C172.456053,115.513667 171.791021,114.986328 170.736328,114.986328 C170.496093,114.986328 170.270509,115.022949 170.05957,115.096191 C169.848632,115.169434 169.656739,115.274902 169.483887,115.412598 C169.311034,115.550294 169.163087,115.715819 169.040039,115.90918 C168.916992,116.10254 168.823243,116.322264 168.758789,116.568359 L172.731445,116.568359 Z M177.987305,113.439453 L180.202148,118.24707 L182.408203,113.439453 L184.631836,113.439453 L180.18457,122.588867 L175.772461,113.439453 L177.987305,113.439453 Z M193.763672,118.185547 L187.628906,118.185547 C187.681641,118.888675 187.910154,119.44824 188.314453,119.864258 C188.718752,120.274416 189.237302,120.479492 189.870117,120.479492 C190.362307,120.479492 190.76953,120.362306 191.091797,120.12793 C191.408205,119.893554 191.768553,119.459964 192.172852,118.827148 L193.842773,119.758789 C193.58496,120.198244 193.312501,120.574705 193.025391,120.888184 C192.73828,121.201662 192.430666,121.459472 192.102539,121.661621 C191.774412,121.863771 191.419924,122.011718 191.039062,122.105469 C190.658201,122.199219 190.245119,122.246094 189.799805,122.246094 C188.522455,122.246094 187.497074,121.835942 186.723633,121.015625 C185.950191,120.189449 185.563477,119.093757 185.563477,117.728516 C185.563477,116.374993 185.938473,115.279301 186.688477,114.441406 C187.44434,113.61523 188.446283,113.202148 189.694336,113.202148 C190.954108,113.202148 191.950192,113.603512 192.682617,114.40625 C193.409183,115.203129 193.772461,116.30761 193.772461,117.719727 L193.763672,118.185547 Z M191.733398,116.568359 C191.458006,115.513667 190.792974,114.986328 189.738281,114.986328 C189.498046,114.986328 189.272462,115.022949 189.061523,115.096191 C188.850585,115.169434 188.658692,115.274902 188.48584,115.412598 C188.312987,115.550294 188.16504,115.715819 188.041992,115.90918 C187.918945,116.10254 187.825196,116.322264 187.760742,116.568359 L191.733398,116.568359 Z M197.90332,107.155273 L197.90332,122 L195.925781,122 L195.925781,107.155273 L197.90332,107.155273 Z M200.003906,117.658203 C200.003906,116.421869 200.446285,115.370122 201.331055,114.50293 C202.215825,113.635738 203.293939,113.202148 204.56543,113.202148 C205.84278,113.202148 206.926753,113.638668 207.817383,114.511719 C208.696293,115.38477 209.135742,116.457025 209.135742,117.728516 C209.135742,119.011725 208.693364,120.08691 207.808594,120.954102 C206.917964,121.815434 205.825202,122.246094 204.530273,122.246094 C203.247064,122.246094 202.171879,121.806645 201.304688,120.927734 C200.437496,120.060543 200.003906,118.97071 200.003906,117.658203 Z M202.025391,117.693359 C202.025391,118.548832 202.253904,119.225583 202.710938,119.723633 C203.17969,120.227542 203.797848,120.479492 204.56543,120.479492 C205.338871,120.479492 205.957029,120.230471 206.419922,119.732422 C206.882815,119.234373 207.114258,118.56934 207.114258,117.737305 C207.114258,116.905269 206.882815,116.240237 206.419922,115.742188 C205.95117,115.238279 205.333012,114.986328 204.56543,114.986328 C203.809567,114.986328 203.197268,115.238279 202.728516,115.742188 C202.259763,116.246096 202.025391,116.89648 202.025391,117.693359 Z M213.205078,126.658203 L211.227539,126.658203 L211.227539,113.439453 L213.205078,113.439453 L213.205078,114.371094 C213.984379,113.591793 214.869136,113.202148 215.859375,113.202148 C217.037115,113.202148 218.006832,113.635738 218.768555,114.50293 C219.541996,115.364262 219.928711,116.451165 219.928711,117.763672 C219.928711,119.046881 219.544926,120.116207 218.777344,120.97168 C218.015621,121.821293 217.054693,122.246094 215.894531,122.246094 C214.892573,122.246094 213.996098,121.844731 213.205078,121.041992 L213.205078,126.658203 Z M217.907227,117.772461 C217.907227,116.952144 217.684573,116.284182 217.239258,115.768555 C216.788084,115.247068 216.21973,114.986328 215.53418,114.986328 C214.807614,114.986328 214.218752,115.238279 213.767578,115.742188 C213.316404,116.246096 213.09082,116.908199 213.09082,117.728516 C213.09082,118.531254 213.316404,119.193357 213.767578,119.714844 C214.212893,120.224612 214.798824,120.479492 215.525391,120.479492 C216.210941,120.479492 216.776365,120.221682 217.22168,119.706055 C217.678713,119.190427 217.907227,118.545902 217.907227,117.772461 Z M222.020508,113.439453 L223.998047,113.439453 L223.998047,114.230469 C224.378908,113.832029 224.7041,113.562501 224.973633,113.421875 C225.260744,113.27539 225.621092,113.202148 226.054688,113.202148 C227.021489,113.202148 227.78613,113.624019 228.348633,114.467773 C228.96973,113.624019 229.810542,113.202148 230.871094,113.202148 C232.798838,113.202148 233.762695,114.371082 233.762695,116.708984 L233.762695,122 L231.776367,122 L231.776367,117.245117 C231.776367,116.424801 231.676759,115.844728 231.477539,115.504883 C231.27246,115.159178 230.935549,114.986328 230.466797,114.986328 C229.921872,114.986328 229.524904,115.191404 229.275879,115.601562 C229.026854,116.011721 228.902344,116.670894 228.902344,117.579102 L228.902344,122 L226.916016,122 L226.916016,117.271484 C226.916016,115.748039 226.476567,114.986328 225.597656,114.986328 C225.041013,114.986328 224.635255,115.194334 224.380371,115.610352 C224.125487,116.026369 223.998047,116.682613 223.998047,117.579102 L223.998047,122 L222.020508,122 L222.020508,113.439453 Z M244.054688,118.185547 L237.919922,118.185547 C237.972657,118.888675 238.20117,119.44824 238.605469,119.864258 C239.009768,120.274416 239.528317,120.479492 240.161133,120.479492 C240.653323,120.479492 241.060545,120.362306 241.382812,120.12793 C241.69922,119.893554 242.059568,119.459964 242.463867,118.827148 L244.133789,119.758789 C243.875975,120.198244 243.603517,120.574705 243.316406,120.888184 C243.029295,121.201662 242.721681,121.459472 242.393555,121.661621 C242.065428,121.863771 241.710939,122.011718 241.330078,122.105469 C240.949217,122.199219 240.536135,122.246094 240.09082,122.246094 C238.81347,122.246094 237.78809,121.835942 237.014648,121.015625 C236.241207,120.189449 235.854492,119.093757 235.854492,117.728516 C235.854492,116.374993 236.229488,115.279301 236.979492,114.441406 C237.735355,113.61523 238.737298,113.202148 239.985352,113.202148 C241.245123,113.202148 242.241207,113.603512 242.973633,114.40625 C243.700199,115.203129 244.063477,116.30761 244.063477,117.719727 L244.054688,118.185547 Z M242.024414,116.568359 C241.749022,115.513667 241.08399,114.986328 240.029297,114.986328 C239.789061,114.986328 239.563478,115.022949 239.352539,115.096191 C239.141601,115.169434 238.949708,115.274902 238.776855,115.412598 C238.604003,115.550294 238.456055,115.715819 238.333008,115.90918 C238.20996,116.10254 238.116211,116.322264 238.051758,116.568359 L242.024414,116.568359 Z M246.216797,113.439453 L248.203125,113.439453 L248.203125,114.230469 C248.894535,113.544918 249.673824,113.202148 250.541016,113.202148 C251.537114,113.202148 252.313474,113.515622 252.870117,114.142578 C253.350588,114.675784 253.59082,115.545892 253.59082,116.75293 L253.59082,122 L251.604492,122 L251.604492,117.21875 C251.604492,116.374996 251.487306,115.791994 251.25293,115.469727 C251.024413,115.1416 250.608401,114.977539 250.004883,114.977539 C249.34863,114.977539 248.882814,115.194334 248.607422,115.62793 C248.337889,116.055666 248.203125,116.802729 248.203125,117.869141 L248.203125,122 L246.216797,122 L246.216797,113.439453 Z M258.125977,115.285156 L258.125977,122 L256.148438,122 L256.148438,115.285156 L255.304688,115.285156 L255.304688,113.439453 L256.148438,113.439453 L256.148438,110.301758 L258.125977,110.301758 L258.125977,113.439453 L259.664062,113.439453 L259.664062,115.285156 L258.125977,115.285156 Z" id="UX-Design-+-Developm" fill="#191818"></path>
                <path d="M60.788,13.792 L70.98,13.792 L70.98,40.26 C70.98,48.528 66.664,54.04 57.98,54.04 C53.612,54.04 50.232,51.856 47.892,48.268 L53.768,42.08 C54.912,43.64 56.524,45.408 57.876,45.408 C60.892,45.408 60.788,41.82 60.788,39.636 L60.788,13.792 Z M91.156,33.656 C87.308,33.656 85.072,36.412 85.072,39.688 C85.072,43.068 87.308,45.668 91.156,45.668 C95.004,45.668 97.24,43.068 97.24,39.688 C97.24,36.412 95.004,33.656 91.156,33.656 Z M106.392,26.324 L106.392,53 L96.928,53 L96.928,50.036 L96.824,50.036 C95.16,52.688 91.884,53.884 88.764,53.884 C80.86,53.884 75.296,47.28 75.296,39.636 C75.296,31.992 80.756,25.44 88.66,25.44 C91.728,25.44 94.952,26.584 96.928,28.924 L96.928,26.324 L106.392,26.324 Z M122.148,26.324 L112.684,26.324 L112.684,53 L122.148,53 L122.148,39.168 C122.148,35.84 123.24,32.98 127.088,32.98 C131.768,32.98 131.352,37.452 131.352,40 L131.352,53 L140.816,53 L140.816,36.516 C140.816,29.964 137.956,25.44 130.78,25.44 C127.088,25.44 124.436,26.532 122.252,29.756 L122.148,29.756 L122.148,26.324 Z M16.328,88 L16.328,48.792 L30.784,48.792 C41.704,48.792 50.7,57.372 50.7,68.396 C50.7,79.42 41.652,88 30.784,88 L16.328,88 Z M26.52,57.424 L26.52,79.368 L28.808,79.368 C34.892,79.368 40.092,76.04 40.092,68.396 C40.092,61.376 35.464,57.424 28.912,57.424 L26.52,57.424 Z M64.688,61.324 L55.224,61.324 L55.224,88 L64.688,88 L64.688,77.236 C64.688,72.66 65.988,69.176 71.24,69.176 C72.696,69.176 73.944,69.332 75.244,70.06 L75.244,60.96 L73.424,60.96 C69.732,60.96 66.612,62.416 64.792,65.692 L64.688,65.692 L64.688,61.324 Z M86.424,70.788 L97.396,70.788 C96.928,68.24 94.588,66.576 92.04,66.576 C89.284,66.576 86.996,68.032 86.424,70.788 Z M106.184,75.26 L106.184,76.248 L86.268,76.248 C86.268,80.096 88.296,82.176 92.196,82.176 C94.224,82.176 95.68,81.5 96.72,79.732 L105.82,79.732 C105.092,82.852 103.22,85.14 100.776,86.648 C98.332,88.156 95.316,88.884 92.248,88.884 C83.408,88.884 76.804,83.892 76.804,74.688 C76.804,65.796 82.888,60.44 91.572,60.44 C100.828,60.44 106.184,66.16 106.184,75.26 Z M117.104,61.324 L106.6,61.324 L120.536,88 L126.672,88 L133.276,73.388 L139.88,88 L146.016,88 L159.952,61.324 L149.5,61.324 L142.792,75.78 L136.084,61.324 L130.468,61.324 L123.76,75.78 L117.104,61.324 Z M171.756,61.324 L162.292,61.324 L162.292,88 L171.756,88 L171.756,74.168 C171.756,70.84 172.848,67.98 176.696,67.98 C181.376,67.98 180.96,72.452 180.96,75 L180.96,88 L190.424,88 L190.424,71.516 C190.424,64.964 187.564,60.44 180.388,60.44 C176.696,60.44 174.044,61.532 171.86,64.756 L171.756,64.756 L171.756,61.324 Z M206.128,61.324 L196.664,61.324 L196.664,88 L206.128,88 L206.128,61.324 Z M201.396,45.776 C198.484,45.776 196.092,48.168 196.092,51.08 C196.092,53.992 198.484,56.384 201.396,56.384 C204.308,56.384 206.7,53.992 206.7,51.08 C206.7,48.168 204.308,45.776 201.396,45.776 Z M226.304,68.656 C222.456,68.656 220.22,71.412 220.22,74.688 C220.22,78.068 222.456,80.668 226.304,80.668 C230.152,80.668 232.388,78.068 232.388,74.688 C232.388,71.412 230.152,68.656 226.304,68.656 Z M241.54,61.324 L241.54,88 L232.076,88 L232.076,85.036 L231.972,85.036 C230.308,87.688 227.032,88.884 223.912,88.884 C216.008,88.884 210.444,82.28 210.444,74.636 C210.444,66.992 215.904,60.44 223.808,60.44 C226.876,60.44 230.1,61.584 232.076,63.924 L232.076,61.324 L241.54,61.324 Z M257.296,44.84 L247.832,44.84 L247.832,88 L257.296,88 L257.296,77.132 L267.644,88 L280.904,88 L266.708,73.648 L280.072,61.324 L267.124,61.324 L257.296,70.944 L257.296,44.84 Z" id="Jan-Drewniak" fill="#191818"></path>
            </g>
        </g>
    </g>
</svg>