<?xml version="1.0" encoding="UTF-8" standalone="no"?>
<svg width="53px" height="62px" viewBox="0 0 53 62" version="1.1" xmlns="http://www.w3.org/2000/svg" xmlns:xlink="http://www.w3.org/1999/xlink" xmlns:sketch="http://www.bohemiancoding.com/sketch/ns">
    <!-- Generator: Sketch 3.1.1 (8761) - http://www.bohemiancoding.com/sketch -->
    <title>logo</title>
    <desc>Created with Sketch.</desc>
    <defs></defs>
    <g id="symbols" stroke="none" stroke-width="1" fill="none" fill-rule="evenodd" sketch:type="MSPage">
        <g id="Artboard-1" sketch:type="MSArtboardGroup" transform="translate(-103.000000, -21.000000)">
            <g id="Oval-2" sketch:type="MSLayerGroup" transform="translate(80.000000, 6.000000)">
                <path d="M49.5327467,19.624999 L53.8799227,19.624999 C63.7270729,19.624999 71.5403318,27.14061 71.5403318,36.7838107 C71.5403318,46.4270114 63.7270729,53.9426224 53.8799227,53.9426224 C53.8799227,53.9426224 37.8748274,54.1744278 38.0969805,53.8251609 C38.1232897,53.7837978 38.1491691,53.742155 38.1746202,53.7002267 C38.9778042,52.3770571 39.3544975,50.7695502 39.3544975,48.6967494 L39.3544975,23.6168785 C39.3544975,22.4505157 38.430871,21.5268892 37.2645082,21.5268892 C36.0981454,21.5268892 35.174519,22.4505157 35.174519,23.6168785 L35.174519,48.6967494 C35.174519,52.7425138 33.8526266,53.817223 30.3675437,53.817223 C29.2011809,53.817223 28.2775545,54.7408495 28.2775545,55.9072123 C28.2775545,57.073575 29.2011809,57.9972015 30.3675437,57.9972015 L53.8799227,57.9972015 C66.0761577,57.9972015 75.7203103,48.7450876 75.7203103,36.7838107 C75.7203103,24.8225337 66.0761577,15.5704199 53.8799227,15.5704199 L47.5879302,15.5704199 L47.0376501,15.5704199 L47.0661333,16.1199622 L47.2221218,19.1295467 L47.2478014,19.624999 L47.7439187,19.624999 L49.5327467,19.624999 L49.5327467,17.6604107 C49.5327467,16.4940479 48.6091202,15.5704215 47.4427574,15.5704215 L43.7852762,15.5704215 L43.7852762,19.6250006 L45.8752655,19.6250006 L45.3527682,19.1025033 L45.3527682,21.4223913 L49.5327467,21.4223912 L49.5327467,19.624999 Z" id="D" fill="#FFFFFF" sketch:type="MSShapeGroup"></path>
                <path d="M49.4909453,60.5051886 L49.4909453,65.3121639 C49.4909453,71.6825999 44.3664404,76.8071047 37.9960044,76.8071047 C34.8573453,76.8071047 32.0082861,75.6128883 29.8517831,73.4563852 C29.0207384,72.6253406 29.0207384,71.3540184 29.8517831,70.5229738 C30.6828277,69.6919291 31.9541499,69.6919291 32.7851946,70.5229738 C34.1467268,71.884506 35.9653885,72.6271262 37.9960044,72.6271262 C42.0337149,72.6271262 45.3109668,69.3498743 45.3109668,65.3121639 L45.3109668,60.5051886 L49.4909453,60.5051886 Z M49.4909453,52.1452316 L49.4909453,17.6604091 C49.4909453,16.4940463 48.5673188,15.5704199 47.400956,15.5704199 L34.3385233,15.5704199 C27.243793,15.5704199 22.5387742,21.6111855 23.0958911,28.9233456 C23.2837239,32.1806528 24.8738854,35.2910784 27.3452292,37.4878284 C28.3230176,38.2020375 29.5651542,38.1275093 30.2912368,37.2400751 C31.0458286,36.3177962 30.9402415,34.9715598 30.0060653,34.2921589 C28.4325942,32.8348939 27.3860839,30.7418733 27.2736374,28.6053908 C26.8886489,23.6625724 29.8412356,19.624999 34.3385233,19.624999 L45.8334641,19.624999 L45.3109668,19.1025017 L45.3109668,52.1452316 L49.4909453,52.1452316 Z" id="J" fill="#C8ECE0" sketch:type="MSShapeGroup"></path>
                <rect id="Rectangle-5" fill="#FFFFFF" sketch:type="MSShapeGroup" x="40.7547903" y="54.0262188" width="13.5849301" height="3.97097956"></rect>
            </g>
        </g>
    </g>
</svg>