<?xml version="1.0" encoding="UTF-8"?>
<svg width="249px" height="101px" viewBox="0 0 249 101" version="1.1" xmlns="http://www.w3.org/2000/svg" xmlns:xlink="http://www.w3.org/1999/xlink">
    <!-- Generator: Sketch 44.1 (41455) - http://www.bohemiancoding.com/sketch -->
    <title>name</title>
    <desc>Created with Sketch.</desc>
    <defs></defs>
    <g id="home-3" stroke="none" stroke-width="1" fill="none" fill-rule="evenodd">
        <g id="iPad" transform="translate(-260.000000, -236.000000)">
            <g id="name" transform="translate(257.000000, 236.000000)">
                <g id="Group-6" transform="translate(0.000000, 2.000000)">
                    <path d="M3.2,67.25 L3.2,29.55 L17.1,29.55 C27.6,29.55 36.25,37.8 36.25,48.4 C36.25,59 27.55,67.25 17.1,67.25 L3.2,67.25 Z M13,37.85 L13,58.95 L15.2,58.95 C21.05,58.95 26.05,55.75 26.05,48.4 C26.05,41.65 21.6,37.85 15.3,37.85 L13,37.85 Z M48.9,41.6 L39.8,41.6 L39.8,67.25 L48.9,67.25 L48.9,56.9 C48.9,52.5 50.15,49.15 55.2,49.15 C56.6,49.15 57.8,49.3 59.05,50 L59.05,41.25 L57.3,41.25 C53.75,41.25 50.75,42.65 49,45.8 L48.9,45.8 L48.9,41.6 Z M69,50.7 L79.55,50.7 C79.1,48.25 76.85,46.65 74.4,46.65 C71.75,46.65 69.55,48.05 69,50.7 Z M88,55 L88,55.95 L68.85,55.95 C68.85,59.65 70.8,61.65 74.55,61.65 C76.5,61.65 77.9,61 78.9,59.3 L87.65,59.3 C86.95,62.3 85.15,64.5 82.8,65.95 C80.45,67.4 77.55,68.1 74.6,68.1 C66.1,68.1 59.75,63.3 59.75,54.45 C59.75,45.9 65.6,40.75 73.95,40.75 C82.85,40.75 88,46.25 88,55 Z M97.7,41.6 L104.1,55.5 L110.55,41.6 L115.95,41.6 L122.4,55.5 L128.85,41.6 L138.9,41.6 L125.5,67.25 L119.6,67.25 L113.25,53.2 L106.9,67.25 L101,67.25 L87.6,41.6 L97.7,41.6 Z M149.45,41.6 L140.35,41.6 L140.35,67.25 L149.45,67.25 L149.45,53.95 C149.45,50.75 150.5,48 154.2,48 C158.7,48 158.3,52.3 158.3,54.75 L158.3,67.25 L167.4,67.25 L167.4,51.4 C167.4,45.1 164.65,40.75 157.75,40.75 C154.2,40.75 151.65,41.8 149.55,44.9 L149.45,44.9 L149.45,41.6 Z M181.7,41.6 L172.6,41.6 L172.6,67.25 L181.7,67.25 L181.7,41.6 Z M177.15,26.65 C174.35,26.65 172.05,28.95 172.05,31.75 C172.05,34.55 174.35,36.85 177.15,36.85 C179.95,36.85 182.25,34.55 182.25,31.75 C182.25,28.95 179.95,26.65 177.15,26.65 Z M200.3,48.65 C196.6,48.65 194.45,51.3 194.45,54.45 C194.45,57.7 196.6,60.2 200.3,60.2 C204,60.2 206.15,57.7 206.15,54.45 C206.15,51.3 204,48.65 200.3,48.65 Z M214.95,41.6 L214.95,67.25 L205.85,67.25 L205.85,64.4 L205.75,64.4 C204.15,66.95 201,68.1 198,68.1 C190.4,68.1 185.05,61.75 185.05,54.4 C185.05,47.05 190.3,40.75 197.9,40.75 C200.85,40.75 203.95,41.85 205.85,44.1 L205.85,41.6 L214.95,41.6 Z M229.3,25.75 L220.2,25.75 L220.2,67.25 L229.3,67.25 L229.3,56.8 L239.25,67.25 L252,67.25 L238.35,53.45 L251.2,41.6 L238.75,41.6 L229.3,50.85 L229.3,25.75 Z" id="Drewniak" fill="#B2D2DA"></path>
                    <path d="M50.65,0.55 L50.65,25.4 C50.65,27.5 50.75,30.95 47.85,30.95 C46.55,30.95 45,29.25 43.9,27.75 L38.25,33.7 C40.5,37.15 43.75,39.25 47.95,39.25 C56.3,39.25 60.45,33.95 60.45,26 L60.45,0.55 L50.65,0.55 Z M79.85,19.65 C76.15,19.65 74,22.3 74,25.45 C74,28.7 76.15,31.2 79.85,31.2 C83.55,31.2 85.7,28.7 85.7,25.45 C85.7,22.3 83.55,19.65 79.85,19.65 Z M94.5,12.6 L94.5,38.25 L85.4,38.25 L85.4,35.4 L85.3,35.4 C83.7,37.95 80.55,39.1 77.55,39.1 C69.95,39.1 64.6,32.75 64.6,25.4 C64.6,18.05 69.85,11.75 77.45,11.75 C80.4,11.75 83.5,12.85 85.4,15.1 L85.4,12.6 L94.5,12.6 Z M109.65,12.6 L100.55,12.6 L100.55,38.25 L109.65,38.25 L109.65,24.95 C109.65,21.75 110.7,19 114.4,19 C118.9,19 118.5,23.3 118.5,25.75 L118.5,38.25 L127.6,38.25 L127.6,22.4 C127.6,16.1 124.85,11.75 117.95,11.75 C114.4,11.75 111.85,12.8 109.75,15.9 L109.65,15.9 L109.65,12.6 Z" id="Jan" fill="#FFFFFF"></path>
                </g>
                <path d="M32.4356689,81.5605469 L32.4356689,89.0532227 C32.4356689,90.1220757 32.6102277,90.903562 32.9593506,91.3977051 C33.4803493,92.1120641 34.2134962,92.4692383 35.1588135,92.4692383 C36.1095018,92.4692383 36.8453343,92.1120641 37.366333,91.3977051 C37.7154558,90.9196753 37.8900146,90.138189 37.8900146,89.0532227 L37.8900146,81.5605469 L39.7672119,81.5605469 L39.7672119,89.5688477 C39.7672119,90.8794011 39.3590129,91.9589801 38.5426025,92.8076172 C37.6241409,93.7529344 36.4962225,94.2255859 35.1588135,94.2255859 C33.8214044,94.2255859 32.6961716,93.7529344 31.7830811,92.8076172 C30.9666707,91.9589801 30.5584717,90.8794011 30.5584717,89.5688477 L30.5584717,81.5605469 L32.4356689,81.5605469 Z M45.3504639,87.498291 L41.9263916,81.5605469 L44.0614014,81.5605469 L46.4381104,85.7741699 L48.9356689,81.5605469 L51.086792,81.5605469 L47.5015869,87.498291 L51.2640381,94 L49.1612549,94 L46.4058838,89.2385254 L43.5699463,94 L41.4429932,94 L45.3504639,87.498291 Z M58.0316162,94 L58.0316162,81.5605469 L60.6419678,81.5605469 C61.8934389,81.5605469 62.8817102,81.6840808 63.6068115,81.9311523 C64.385624,82.1728528 65.0919158,82.5837373 65.725708,83.1638184 C67.0094058,84.3347227 67.6512451,85.8735256 67.6512451,87.7802734 C67.6512451,89.6923924 66.9825506,91.2392519 65.6451416,92.4208984 C64.9737515,93.0117217 64.2701453,93.4226063 63.5343018,93.6535645 C62.8467983,93.8845226 61.8719546,94 60.6097412,94 L58.0316162,94 Z M59.9088135,92.2355957 L60.7547607,92.2355957 C61.5980267,92.2355957 62.2989474,92.1469735 62.8575439,91.9697266 C63.4161405,91.7817373 63.9210183,91.4836446 64.3721924,91.0754395 C65.2960251,90.2321735 65.7579346,89.1337958 65.7579346,87.7802734 C65.7579346,86.4160088 65.3013962,85.3095746 64.3883057,84.4609375 C63.5665242,83.7036095 62.3553547,83.3249512 60.7547607,83.3249512 L59.9088135,83.3249512 L59.9088135,92.2355957 Z M76.8116455,90.503418 L71.1881104,90.503418 C71.2364504,91.1479524 71.445921,91.6608868 71.8165283,92.0422363 C72.1871356,92.4182148 72.6624727,92.6062012 73.2425537,92.6062012 C73.6937278,92.6062012 74.0670151,92.4987804 74.3624268,92.2839355 C74.6524673,92.0690907 74.9827862,91.6716338 75.3533936,91.0915527 L76.8841553,91.9455566 C76.647826,92.3483907 76.3980726,92.69348 76.1348877,92.980835 C75.8717028,93.2681899 75.5897232,93.5045157 75.2889404,93.6898193 C74.9881577,93.875123 74.6632098,94.0107418 74.3140869,94.0966797 C73.9649641,94.1826176 73.5863058,94.2255859 73.1781006,94.2255859 C72.0071963,94.2255859 71.0672643,93.8496131 70.3582764,93.0976562 C69.6492884,92.3403282 69.2947998,91.3359438 69.2947998,90.0844727 C69.2947998,88.8437438 69.6385464,87.8393593 70.3260498,87.0712891 C71.0189244,86.3139611 71.9373722,85.9353027 73.0814209,85.9353027 C74.2362118,85.9353027 75.1492886,86.303219 75.8206787,87.0390625 C76.4866977,87.7695349 76.8197021,88.7819759 76.8197021,90.076416 L76.8116455,90.503418 Z M74.9505615,89.0209961 C74.6981189,88.0541944 74.0885058,87.5708008 73.1217041,87.5708008 C72.9014882,87.5708008 72.6947031,87.6043698 72.5013428,87.6715088 C72.3079824,87.7386478 72.1320809,87.8353265 71.9736328,87.9615479 C71.8151848,88.0877692 71.679566,88.2395011 71.5667725,88.416748 C71.4539789,88.593995 71.3680423,88.795409 71.30896,89.0209961 L74.9505615,89.0209961 Z M83.3536377,87.4902344 L81.8551025,88.2878418 C81.6187732,87.8044409 81.3260516,87.5627441 80.9769287,87.5627441 C80.810424,87.5627441 80.6680914,87.6177973 80.5499268,87.7279053 C80.4317621,87.8380132 80.3726807,87.979003 80.3726807,88.1508789 C80.3726807,88.4516617 80.7217983,88.7497544 81.4200439,89.045166 C82.3814745,89.4587423 83.0286849,89.8400861 83.3616943,90.189209 C83.6947038,90.5383318 83.8612061,91.0082978 83.8612061,91.5991211 C83.8612061,92.3564491 83.581912,92.9902318 83.0233154,93.5004883 C82.4808322,93.9838891 81.8255654,94.2255859 81.0574951,94.2255859 C79.7415706,94.2255859 78.8096951,93.5837467 78.2618408,92.3000488 L79.8087158,91.5830078 C80.0235606,91.9589863 80.1873774,92.1979975 80.3001709,92.3000488 C80.5203868,92.5041514 80.7835678,92.6062012 81.0897217,92.6062012 C81.7020294,92.6062012 82.0081787,92.3269071 82.0081787,91.7683105 C82.0081787,91.4460433 81.7718529,91.1452651 81.2991943,90.8659668 C81.1165762,90.7746577 80.9339609,90.6860356 80.7513428,90.6000977 C80.5687247,90.5141597 80.3834238,90.4255376 80.1954346,90.3342285 C79.6690648,90.0764147 79.298463,89.8186048 79.0836182,89.560791 C78.809691,89.2331527 78.6727295,88.811526 78.6727295,88.2958984 C78.6727295,87.6137661 78.9063697,87.0498069 79.3736572,86.6040039 C79.851687,86.1582009 80.4317593,85.9353027 81.1138916,85.9353027 C82.1182912,85.9353027 82.8648657,86.4536081 83.3536377,87.4902344 Z M87.3013916,86.152832 L87.3013916,94 L85.4886475,94 L85.4886475,86.152832 L87.3013916,86.152832 Z M85.2147217,82.8898926 C85.2147217,82.5729965 85.330199,82.2990734 85.5611572,82.0681152 C85.7921154,81.837157 86.068724,81.7216797 86.3909912,81.7216797 C86.7186296,81.7216797 86.9979236,81.837157 87.2288818,82.0681152 C87.45984,82.2937023 87.5753174,82.5703109 87.5753174,82.8979492 C87.5753174,83.2255876 87.45984,83.5048817 87.2288818,83.7358398 C87.0032948,83.966798 86.7266862,84.0822754 86.3990479,84.0822754 C86.0714095,84.0822754 85.7921154,83.966798 85.5611572,83.7358398 C85.330199,83.5048817 85.2147217,83.2229021 85.2147217,82.8898926 Z M97.1868896,93.8146973 C97.1868896,94.1853046 97.1748048,94.5115953 97.1506348,94.7935791 C97.1264647,95.0755629 97.0928957,95.3239735 97.0499268,95.5388184 C96.9210199,96.1296416 96.668581,96.6372049 96.2926025,97.0615234 C95.5836146,97.8779338 94.6087709,98.2861328 93.368042,98.2861328 C92.3206735,98.2861328 91.4586215,98.0041532 90.7818604,97.4401855 C90.0836147,96.8601045 89.6807867,96.057134 89.5733643,95.03125 L91.394165,95.03125 C91.4639896,95.4179707 91.579467,95.7160634 91.7406006,95.9255371 C92.116579,96.4143091 92.6644251,96.6586914 93.3841553,96.6586914 C94.7108221,96.6586914 95.3741455,95.8449788 95.3741455,94.2175293 L95.3741455,93.1218262 C94.6544153,93.8576697 93.8245897,94.2255859 92.8846436,94.2255859 C91.8157906,94.2255859 90.940311,93.8388711 90.2581787,93.0654297 C89.5706753,92.2812461 89.2269287,91.3010313 89.2269287,90.1247559 C89.2269287,88.9807072 89.5465056,88.0085489 90.1856689,87.208252 C90.8731724,86.3596149 91.7808781,85.9353027 92.9088135,85.9353027 C93.8970997,85.9353027 94.7188688,86.303219 95.3741455,87.0390625 L95.3741455,86.152832 L97.1868896,86.152832 L97.1868896,93.8146973 Z M95.4466553,90.0925293 C95.4466553,89.3298302 95.2425558,88.7202171 94.8343506,88.2636719 C94.4207743,87.7963844 93.8917269,87.5627441 93.2471924,87.5627441 C92.5596889,87.5627441 92.0172139,87.8178685 91.619751,88.328125 C91.2598859,88.7846703 91.0799561,89.3754847 91.0799561,90.1005859 C91.0799561,90.814945 91.2598859,91.4003883 91.619751,91.8569336 C92.0118428,92.3564478 92.5543178,92.6062012 93.2471924,92.6062012 C93.9400669,92.6062012 94.487913,92.3537623 94.8907471,91.848877 C95.2613544,91.3923317 95.4466553,90.8068883 95.4466553,90.0925293 Z M99.4749756,86.152832 L101.295776,86.152832 L101.295776,86.8779297 C101.929569,86.2495086 102.643917,85.9353027 103.438843,85.9353027 C104.351933,85.9353027 105.063596,86.2226534 105.573853,86.7973633 C106.014284,87.2861353 106.234497,88.0837347 106.234497,89.1901855 L106.234497,94 L104.413696,94 L104.413696,89.6171875 C104.413696,88.8437461 104.306275,88.3093276 104.091431,88.013916 C103.881957,87.7131333 103.500613,87.5627441 102.947388,87.5627441 C102.345822,87.5627441 101.918825,87.7614726 101.666382,88.1589355 C101.41931,88.5510274 101.295776,89.235835 101.295776,90.2133789 L101.295776,94 L99.4749756,94 L99.4749756,86.152832 Z M113.267944,88.2797852 L113.267944,86.78125 L116.812866,86.78125 L116.812866,83.3007812 L118.303345,83.3007812 L118.303345,86.78125 L121.848267,86.78125 L121.848267,88.2797852 L118.303345,88.2797852 L118.303345,91.7602539 L116.812866,91.7602539 L116.812866,88.2797852 L113.267944,88.2797852 Z M129.236206,94 L129.236206,81.5605469 L131.846558,81.5605469 C133.098029,81.5605469 134.0863,81.6840808 134.811401,81.9311523 C135.590214,82.1728528 136.296506,82.5837373 136.930298,83.1638184 C138.213996,84.3347227 138.855835,85.8735256 138.855835,87.7802734 C138.855835,89.6923924 138.18714,91.2392519 136.849731,92.4208984 C136.178341,93.0117217 135.474735,93.4226063 134.738892,93.6535645 C134.051388,93.8845226 133.076544,94 131.814331,94 L129.236206,94 Z M131.113403,92.2355957 L131.959351,92.2355957 C132.802617,92.2355957 133.503537,92.1469735 134.062134,91.9697266 C134.62073,91.7817373 135.125608,91.4836446 135.576782,91.0754395 C136.500615,90.2321735 136.962524,89.1337958 136.962524,87.7802734 C136.962524,86.4160088 136.505986,85.3095746 135.592896,84.4609375 C134.771114,83.7036095 133.559945,83.3249512 131.959351,83.3249512 L131.113403,83.3249512 L131.113403,92.2355957 Z M148.016235,90.503418 L142.3927,90.503418 C142.44104,91.1479524 142.650511,91.6608868 143.021118,92.0422363 C143.391725,92.4182148 143.867063,92.6062012 144.447144,92.6062012 C144.898318,92.6062012 145.271605,92.4987804 145.567017,92.2839355 C145.857057,92.0690907 146.187376,91.6716338 146.557983,91.0915527 L148.088745,91.9455566 C147.852416,92.3483907 147.602662,92.69348 147.339478,92.980835 C147.076293,93.2681899 146.794313,93.5045157 146.49353,93.6898193 C146.192748,93.875123 145.8678,94.0107418 145.518677,94.0966797 C145.169554,94.1826176 144.790896,94.2255859 144.38269,94.2255859 C143.211786,94.2255859 142.271854,93.8496131 141.562866,93.0976562 C140.853878,92.3403282 140.49939,91.3359438 140.49939,90.0844727 C140.49939,88.8437438 140.843136,87.8393593 141.53064,87.0712891 C142.223514,86.3139611 143.141962,85.9353027 144.286011,85.9353027 C145.440802,85.9353027 146.353878,86.303219 147.025269,87.0390625 C147.691288,87.7695349 148.024292,88.7819759 148.024292,90.076416 L148.016235,90.503418 Z M146.155151,89.0209961 C145.902709,88.0541944 145.293096,87.5708008 144.326294,87.5708008 C144.106078,87.5708008 143.899293,87.6043698 143.705933,87.6715088 C143.512572,87.7386478 143.336671,87.8353265 143.178223,87.9615479 C143.019775,88.0877692 142.884156,88.2395011 142.771362,88.416748 C142.658569,88.593995 142.572632,88.795409 142.51355,89.0209961 L146.155151,89.0209961 Z M150.973022,86.152832 L153.003296,90.5598145 L155.025513,86.152832 L157.063843,86.152832 L152.987183,94.5397949 L148.942749,86.152832 L150.973022,86.152832 Z M165.434692,90.503418 L159.811157,90.503418 C159.859497,91.1479524 160.068968,91.6608868 160.439575,92.0422363 C160.810183,92.4182148 161.28552,92.6062012 161.865601,92.6062012 C162.316775,92.6062012 162.690062,92.4987804 162.985474,92.2839355 C163.275514,92.0690907 163.605833,91.6716338 163.97644,91.0915527 L165.507202,91.9455566 C165.270873,92.3483907 165.021119,92.69348 164.757935,92.980835 C164.49475,93.2681899 164.21277,93.5045157 163.911987,93.6898193 C163.611205,93.875123 163.286257,94.0107418 162.937134,94.0966797 C162.588011,94.1826176 162.209353,94.2255859 161.801147,94.2255859 C160.630243,94.2255859 159.690311,93.8496131 158.981323,93.0976562 C158.272335,92.3403282 157.917847,91.3359438 157.917847,90.0844727 C157.917847,88.8437438 158.261593,87.8393593 158.949097,87.0712891 C159.641971,86.3139611 160.560419,85.9353027 161.704468,85.9353027 C162.859259,85.9353027 163.772336,86.303219 164.443726,87.0390625 C165.109745,87.7695349 165.442749,88.7819759 165.442749,90.076416 L165.434692,90.503418 Z M163.573608,89.0209961 C163.321166,88.0541944 162.711553,87.5708008 161.744751,87.5708008 C161.524535,87.5708008 161.31775,87.6043698 161.12439,87.6715088 C160.931029,87.7386478 160.755128,87.8353265 160.59668,87.9615479 C160.438232,88.0877692 160.302613,88.2395011 160.189819,88.416748 C160.077026,88.593995 159.991089,88.795409 159.932007,89.0209961 L163.573608,89.0209961 Z M169.22937,80.392334 L169.22937,94 L167.416626,94 L167.416626,80.392334 L169.22937,80.392334 Z M171.154907,90.0200195 C171.154907,88.8867131 171.560421,87.9226114 172.37146,87.1276855 C173.182499,86.3327597 174.170771,85.9353027 175.336304,85.9353027 C176.507208,85.9353027 177.50085,86.3354452 178.317261,87.1357422 C179.122929,87.9360392 179.525757,88.9189395 179.525757,90.0844727 C179.525757,91.2607481 179.120243,92.2463339 178.309204,93.0412598 C177.492794,93.8308145 176.491095,94.2255859 175.304077,94.2255859 C174.127802,94.2255859 173.142216,93.8227579 172.34729,93.0170898 C171.552364,92.222164 171.154907,91.2231505 171.154907,90.0200195 Z M173.007935,90.0522461 C173.007935,90.8364297 173.217405,91.4567848 173.636353,91.9133301 C174.066042,92.3752465 174.632687,92.6062012 175.336304,92.6062012 C176.045292,92.6062012 176.611936,92.377932 177.036255,91.9213867 C177.460573,91.4648415 177.672729,90.8552284 177.672729,90.0925293 C177.672729,89.3298302 177.460573,88.7202171 177.036255,88.2636719 C176.606565,87.8017555 176.039921,87.5708008 175.336304,87.5708008 C174.643429,87.5708008 174.082155,87.8017555 173.652466,88.2636719 C173.222776,88.7255882 173.007935,89.3217737 173.007935,90.0522461 Z M183.255981,98.2700195 L181.443237,98.2700195 L181.443237,86.152832 L183.255981,86.152832 L183.255981,87.0068359 C183.97034,86.2924769 184.781368,85.9353027 185.689087,85.9353027 C186.768682,85.9353027 187.657589,86.3327597 188.355835,87.1276855 C189.064823,87.9172403 189.419312,88.9135682 189.419312,90.1166992 C189.419312,91.2929746 189.067508,92.2731894 188.363892,93.057373 C187.665646,93.8361855 186.784795,94.2255859 185.721313,94.2255859 C184.802852,94.2255859 183.981083,93.8576697 183.255981,93.1218262 L183.255981,98.2700195 Z M187.566284,90.1247559 C187.566284,89.372799 187.362185,88.7605004 186.953979,88.2878418 C186.540403,87.8098121 186.019412,87.5708008 185.390991,87.5708008 C184.724972,87.5708008 184.185183,87.8017555 183.771606,88.2636719 C183.35803,88.7255882 183.151245,89.3325158 183.151245,90.0844727 C183.151245,90.8203162 183.35803,91.4272437 183.771606,91.9052734 C184.179812,92.3725609 184.716916,92.6062012 185.382935,92.6062012 C186.011356,92.6062012 186.529661,92.3698754 186.937866,91.8972168 C187.356814,91.4245582 187.566284,90.8337438 187.566284,90.1247559 Z M191.336792,86.152832 L193.149536,86.152832 L193.149536,86.8779297 C193.498659,86.5126935 193.796752,86.2656256 194.043823,86.1367188 C194.307008,86.0024407 194.637327,85.9353027 195.03479,85.9353027 C195.921025,85.9353027 196.621946,86.3220176 197.137573,87.095459 C197.706912,86.3220176 198.477656,85.9353027 199.449829,85.9353027 C201.216928,85.9353027 202.100464,87.0068252 202.100464,89.1499023 L202.100464,94 L200.279663,94 L200.279663,89.6413574 C200.279663,88.8894005 200.188355,88.3576676 200.005737,88.0461426 C199.817748,87.7292465 199.508913,87.5708008 199.079224,87.5708008 C198.579709,87.5708008 198.215821,87.7587872 197.987549,88.1347656 C197.759276,88.5107441 197.645142,89.1149861 197.645142,89.9475098 L197.645142,94 L195.824341,94 L195.824341,89.6655273 C195.824341,88.269036 195.421513,87.5708008 194.615845,87.5708008 C194.105588,87.5708008 193.733644,87.7614727 193.5,88.1428223 C193.266356,88.5241718 193.149536,89.1257283 193.149536,89.9475098 L193.149536,94 L191.336792,94 L191.336792,86.152832 Z M211.53479,90.503418 L205.911255,90.503418 C205.959595,91.1479524 206.169066,91.6608868 206.539673,92.0422363 C206.91028,92.4182148 207.385617,92.6062012 207.965698,92.6062012 C208.416872,92.6062012 208.79016,92.4987804 209.085571,92.2839355 C209.375612,92.0690907 209.705931,91.6716338 210.076538,91.0915527 L211.6073,91.9455566 C211.37097,92.3483907 211.121217,92.69348 210.858032,92.980835 C210.594847,93.2681899 210.312868,93.5045157 210.012085,93.6898193 C209.711302,93.875123 209.386354,94.0107418 209.037231,94.0966797 C208.688109,94.1826176 208.30945,94.2255859 207.901245,94.2255859 C206.730341,94.2255859 205.790409,93.8496131 205.081421,93.0976562 C204.372433,92.3403282 204.017944,91.3359438 204.017944,90.0844727 C204.017944,88.8437438 204.361691,87.8393593 205.049194,87.0712891 C205.742069,86.3139611 206.660517,85.9353027 207.804565,85.9353027 C208.959356,85.9353027 209.872433,86.303219 210.543823,87.0390625 C211.209842,87.7695349 211.542847,88.7819759 211.542847,90.076416 L211.53479,90.503418 Z M209.673706,89.0209961 C209.421263,88.0541944 208.81165,87.5708008 207.844849,87.5708008 C207.624633,87.5708008 207.417848,87.6043698 207.224487,87.6715088 C207.031127,87.7386478 206.855225,87.8353265 206.696777,87.9615479 C206.538329,88.0877692 206.402711,88.2395011 206.289917,88.416748 C206.177123,88.593995 206.091187,88.795409 206.032104,89.0209961 L209.673706,89.0209961 Z M213.516724,86.152832 L215.337524,86.152832 L215.337524,86.8779297 C215.971317,86.2495086 216.685665,85.9353027 217.480591,85.9353027 C218.393681,85.9353027 219.105344,86.2226534 219.615601,86.7973633 C220.056032,87.2861353 220.276245,88.0837347 220.276245,89.1901855 L220.276245,94 L218.455444,94 L218.455444,89.6171875 C218.455444,88.8437461 218.348024,88.3093276 218.133179,88.013916 C217.923705,87.7131333 217.542361,87.5627441 216.989136,87.5627441 C216.38757,87.5627441 215.960573,87.7614726 215.70813,88.1589355 C215.461058,88.5510274 215.337524,89.235835 215.337524,90.2133789 L215.337524,94 L213.516724,94 L213.516724,86.152832 Z M224.433472,87.8447266 L224.433472,94 L222.620728,94 L222.620728,87.8447266 L221.84729,87.8447266 L221.84729,86.152832 L222.620728,86.152832 L222.620728,83.2766113 L224.433472,83.2766113 L224.433472,86.152832 L225.843384,86.152832 L225.843384,87.8447266 L224.433472,87.8447266 Z" id="UX-Design-+-Developm" fill="#739CA5"></path>
            </g>
        </g>
    </g>
</svg>