<?xml version="1.0" encoding="UTF-8" standalone="no"?>
<svg width="120px" height="120px" viewBox="0 0 120 120" version="1.1" xmlns="http://www.w3.org/2000/svg" xmlns:xlink="http://www.w3.org/1999/xlink" xmlns:sketch="http://www.bohemiancoding.com/sketch/ns">
    <!-- Generator: Sketch 3.0.1 (7597) - http://www.bohemiancoding.com/sketch -->
    <title>monogram</title>
    <description>Created with Sketch.</description>
    <defs>
        <filter x="-50%" y="-50%" width="200%" height="200%" filterUnits="objectBoundingBox" id="filter-1">
            <feOffset dx="0" dy="2" in="SourceAlpha" result="shadowOffsetOuter1"></feOffset>
            <feGaussianBlur stdDeviation="7" in="shadowOffsetOuter1" result="shadowBlurOuter1"></feGaussianBlur>
            <feColorMatrix values="0 0 0 0 0   0 0 0 0 0   0 0 0 0 0  0 0 0 0.35 0" in="shadowBlurOuter1" type="matrix" result="shadowMatrixOuter1"></feColorMatrix>
            <feOffset dx="0" dy="0" in="SourceAlpha" result="shadowOffsetInner1"></feOffset>
            <feGaussianBlur stdDeviation="6" in="shadowOffsetInner1" result="shadowBlurInner1"></feGaussianBlur>
            <feComposite in="shadowBlurInner1" in2="SourceAlpha" operator="arithmetic" k2="-1" k3="1" result="shadowInnerInner1"></feComposite>
            <feColorMatrix values="0 0 0 0 0   0 0 0 0 0   0 0 0 0 0  0 0 0 0.247064651 0" in="shadowInnerInner1" type="matrix" result="shadowMatrixInner1"></feColorMatrix>
            <feMerge>
                <feMergeNode in="shadowMatrixOuter1"></feMergeNode>
                <feMergeNode in="SourceGraphic"></feMergeNode>
                <feMergeNode in="shadowMatrixInner1"></feMergeNode>
            </feMerge>
        </filter>
        <filter x="-50%" y="-50%" width="200%" height="200%" filterUnits="objectBoundingBox" id="filter-2">
            <feOffset dx="1" dy="2" in="SourceAlpha" result="shadowOffsetOuter1"></feOffset>
            <feGaussianBlur stdDeviation="1" in="shadowOffsetOuter1" result="shadowBlurOuter1"></feGaussianBlur>
            <feColorMatrix values="0 0 0 0 0   0 0 0 0 0   0 0 0 0 0  0 0 0 0.35 0" in="shadowBlurOuter1" type="matrix" result="shadowMatrixOuter1"></feColorMatrix>
            <feMerge>
                <feMergeNode in="shadowMatrixOuter1"></feMergeNode>
                <feMergeNode in="SourceGraphic"></feMergeNode>
            </feMerge>
        </filter>
        <filter x="-50%" y="-50%" width="200%" height="200%" filterUnits="objectBoundingBox" id="filter-3">
            <feOffset dx="1" dy="2" in="SourceAlpha" result="shadowOffsetOuter1"></feOffset>
            <feGaussianBlur stdDeviation="1" in="shadowOffsetOuter1" result="shadowBlurOuter1"></feGaussianBlur>
            <feColorMatrix values="0 0 0 0 0   0 0 0 0 0   0 0 0 0 0  0 0 0 0.35 0" in="shadowBlurOuter1" type="matrix" result="shadowMatrixOuter1"></feColorMatrix>
            <feMerge>
                <feMergeNode in="shadowMatrixOuter1"></feMergeNode>
                <feMergeNode in="SourceGraphic"></feMergeNode>
            </feMerge>
        </filter>
    </defs>
    <g id="Page-1" stroke="none" stroke-width="1" fill="none" fill-rule="evenodd" sketch:type="MSPage">
        <g id="monogram" sketch:type="MSArtboardGroup" transform="translate(-38.000000, -42.000000)">
            <g id="logotype-2" sketch:type="MSLayerGroup" transform="translate(54.000000, 56.000000)">
                <path d="M44,88 C68.300529,88 88,68.300529 88,44 C88,19.699471 68.300529,0 44,0 C19.699471,0 0,19.699471 0,44 C0,68.300529 19.699471,88 44,88 Z" id="Oval-1" stroke="#FFFFFF" stroke-width="5" fill="#535353" filter="url(#filter-1)" sketch:type="MSShapeGroup"></path>
                <path d="M47.4000015,18.78 L51.56,18.78 C60.9831587,18.78 68.46,25.9720092 68.46,35.2 C68.46,44.4279908 60.9831587,51.62 51.56,51.62 L35.36,51.62 L35.72997,52.4563364 C37.051495,51.0026589 37.66,49.177144 37.66,46.6 L37.66,22.6 C37.66,21.4838576 36.7761424,20.6 35.66,20.6 C34.5438576,20.6 33.66,21.4838576 33.66,22.6 L33.66,46.6 C33.66,50.4715648 32.3950247,51.5 29.06,51.5 C27.9438576,51.5 27.06,52.3838576 27.06,53.5 C27.06,54.6161424 27.9438576,55.5 29.06,55.5 L51.56,55.5 C63.2310983,55.5 72.46,46.6462569 72.46,35.2 C72.46,23.7537431 63.2310983,14.9 51.56,14.9 L45.5389235,14.9 L45.0123371,14.9 L45.0395938,15.4258806 L45.1888659,18.3058806 L45.2134398,18.78 L45.6881956,18.78 L47.4000015,18.78 L47.4000015,16.9000015 C47.4000015,15.7838592 46.5161439,14.9000015 45.4000015,14.9000015 L41.9000015,14.9000015 L41.9000015,18.7800015 L43.9000015,18.7800015 L43.4000015,18.2800015 L43.4000015,20.5000015 L47.4000015,20.5000014 L47.4000015,18.78 Z" id="D" fill="#FFFFFF" filter="url(#filter-2)" sketch:type="MSShapeGroup"></path>
                <path d="M47.36,57.9 L47.36,62.5 C47.36,68.5961424 42.4561424,73.5 36.36,73.5 C33.3564829,73.5 30.6300965,72.3572033 28.5664466,70.2935534 C27.7711845,69.4982912 27.7711845,68.2817088 28.5664466,67.4864466 C29.3617088,66.6911845 30.5782912,66.6911845 31.3735534,67.4864466 C32.6764618,68.789355 34.4168169,69.5 36.36,69.5 C40.2238576,69.5 43.36,66.3638576 43.36,62.5 L43.36,57.9 L47.36,57.9 Z M47.36,49.9 L47.36,16.9 C47.36,15.7838576 46.4761424,14.9 45.36,14.9 L32.86,14.9 C26.0707494,14.9 21.5683159,20.6806668 22.101445,27.6779851 C22.2811902,30.7950415 23.8028836,33.7715407 26.1678181,35.8737047 C27.1035056,36.5571618 28.2921592,36.4858426 28.9869786,35.6366189 C29.7090798,34.7540508 29.6080389,33.4657797 28.7140858,32.815632 C27.2083642,31.4211128 26.2069137,29.418212 26.0993089,27.3737206 C25.7308969,22.6437265 28.5563533,18.78 32.86,18.78 L43.86,18.78 L43.36,18.28 L43.36,49.9 L47.36,49.9 Z" id="J" fill="#D4FEFF" filter="url(#filter-3)" sketch:type="MSShapeGroup"></path>
            </g>
        </g>
    </g>
</svg>