<?xml version="1.0" encoding="UTF-8" standalone="no"?>
<svg width="34px" height="26px" xmlns="http://www.w3.org/2000/svg" version="1.1">
    <title>pointer</title>
    <description>Created with Sketch (http://www.bohemiancoding.com/sketch)</description>
    <defs>
        <linearGradient id="gradient-1" x1="50%" y1="0%" x2="50%" y2="100%">
            <stop offset="0%" style="stop-color:rgb(255,255,255); stop-opacity:100"></stop>
            <stop offset="100%" style="stop-color:rgb(0,0,0); stop-opacity:100"></stop>
        </linearGradient>
        <linearGradient id="gradient-2" x1="50%" y1="0%" x2="50%" y2="100%">
            <stop offset="0%" style="stop-color:rgb(255,255,255); stop-opacity:100"></stop>
            <stop offset="100%" style="stop-color:rgb(0,0,0); stop-opacity:100"></stop>
        </linearGradient>
        <linearGradient id="gradient-3" x1="50%" y1="0%" x2="50%" y2="100%">
            <stop offset="0%" style="stop-color:rgb(255,255,255); stop-opacity:100"></stop>
            <stop offset="100%" style="stop-color:rgb(0,0,0); stop-opacity:100"></stop>
        </linearGradient>
        <linearGradient id="gradient-4" x1="50%" y1="0%" x2="50%" y2="100%">
            <stop offset="0%" style="stop-color:rgb(255,255,255); stop-opacity:100"></stop>
            <stop offset="100%" style="stop-color:rgb(0,0,0); stop-opacity:100"></stop>
        </linearGradient>
        <linearGradient id="gradient-5" x1="50%" y1="0%" x2="50%" y2="100%">
            <stop offset="0%" style="stop-color:rgb(255,255,255); stop-opacity:100"></stop>
            <stop offset="100%" style="stop-color:rgb(0,0,0); stop-opacity:100"></stop>
        </linearGradient>
        <linearGradient id="gradient-6" x1="50%" y1="0%" x2="50%" y2="100%">
            <stop offset="0%" style="stop-color:rgb(255,255,255); stop-opacity:100"></stop>
            <stop offset="100%" style="stop-color:rgb(0,0,0); stop-opacity:100"></stop>
        </linearGradient>
        <linearGradient id="gradient-7" x1="50%" y1="0%" x2="50%" y2="100%">
            <stop offset="0%" style="stop-color:rgb(255,255,255); stop-opacity:100"></stop>
            <stop offset="100%" style="stop-color:rgb(0,0,0); stop-opacity:100"></stop>
        </linearGradient>
        <linearGradient id="gradient-8" x1="50%" y1="0%" x2="50%" y2="100%">
            <stop offset="0%" style="stop-color:rgb(255,255,255); stop-opacity:100"></stop>
            <stop offset="100%" style="stop-color:rgb(0,0,0); stop-opacity:100"></stop>
        </linearGradient>
    </defs>
    <g fill="rgb(215,215,215)" id="Page 1">
        <g fill="rgb(102,102,102)" id="Shape"></g>
        <path id="Shape" d="M33,7 C32,7 31,7 30,7 C28,6 22,4 18,4 C15,4 9,4 4,5 C2,5 1,6 1,7 C1,9 2,10 4,10 L11,10 C10,10 10,11 10,12 C10,13 10,14 11,14 L11,15 C11,16 11,17 12,17 C12,17 12,17 12,18 C12,19 13,21 16,21 C17,21 18,21 18,20 C19,21 20,21 21,21 C22,21 27,21 30,18 C30,18 32,19 33,19 L33,19 L33,19 L33,7 M31,18 C31,18 30,17 29,17 L29,17 L28,17 C27,19 23,20 20,20 C20,20 19,20 19,20 C21,19 21,18 21,17 C21,16 21,16 20,16 C21,15 21,15 21,14 L21,13 C22,14 24,15 25,15 C26,15 27,14 27,14 L27,13 C27,13 27,13 27,14 L25,14 C23,14 21,12 20,11 C20,11 20,11 20,11 L19,11 C19,11 19,10 18,10 C18,10 18,11 18,11 C17,12 16,14 15,14 C14,14 13,14 13,13 C13,13 13,12 14,12 C14,11 14,10 15,9 C15,9 16,7 16,7 C17,6 18,5 20,5 C22,5 26,7 29,8 L29,8 L31,8 L31,8 L31,18 M11,13 L11,13 C10,13 9,13 9,12 C9,11 11,10 12,10 C11,11 11,12 11,13 C11,13 11,12 11,13 L11,13 M18,12 L19,12 C19,12 19,13 20,13 C19,13 19,13 19,13 L19,14 C19,15 16,17 14,17 C12,17 11,16 11,15 C11,15 11,15 11,14 L13,14 C14,16 16,16 18,12 C18,12 16,16 18,12 L18,12 M18,18 C18,19 16,20 15,20 C13,20 13,19 13,18 L14,18 C16,18 18,17 19,16 L19,17 C19,17 19,18 18,18 C18,18 19,18 18,18 L18,18 M17,5 C16,5 15,7 14,9 L8,9 L3,9 C2,9 2,8 2,7 C2,7 3,6 4,6 C7,5 14,5 17,5 C17,5 14,5 17,5 L17,5" fill="rgb(102,102,102)"></path>
        <path id="Shape decoration" d="" fill="rgb(102,102,102)"></path>
    </g>
</svg>