<?xml version="1.0" encoding="UTF-8" standalone="no"?>
<svg width="1000px" height="700px" viewBox="0 0 1000 700" version="1.1" xmlns="http://www.w3.org/2000/svg" xmlns:xlink="http://www.w3.org/1999/xlink" xmlns:sketch="http://www.bohemiancoding.com/sketch/ns">
    <!-- Generator: Sketch 3.0.1 (7597) - http://www.bohemiancoding.com/sketch -->
    <title>skedx_home_preview</title>
    <description>Created with Sketch.</description>
    <defs></defs>
    <g id="Page-1" stroke="none" stroke-width="1" fill="none" fill-rule="evenodd" sketch:type="MSPage">
        <g id="skedx_home_preview" sketch:type="MSArtboardGroup" stroke="#FFFFFF" stroke-width="3" fill="#FFFFFF" fill-opacity="0.300000012">
            <g id="grid" sketch:type="MSLayerGroup" transform="translate(-1.000000, -2.000000)">
                <rect id="Rectangle-8" sketch:type="MSShapeGroup" x="0" y="0" width="1009" height="709"></rect>
                <rect id="Rectangle-21" sketch:type="MSShapeGroup" x="16" y="403" width="997" height="321"></rect>
                <rect id="Rectangle-29" sketch:type="MSShapeGroup" x="16" y="380" width="534" height="23"></rect>
                <rect id="Rectangle-22" sketch:type="MSShapeGroup" x="17" y="502" width="997" height="80"></rect>
                <rect id="Rectangle-23" sketch:type="MSShapeGroup" x="17" y="581" width="1004" height="80"></rect>
                <rect id="Rectangle-25" sketch:type="MSShapeGroup" x="134" y="477" width="713" height="25"></rect>
                <rect id="Rectangle-26" sketch:type="MSShapeGroup" x="134" y="409" width="106" height="68"></rect>
                <rect id="Rectangle-27" sketch:type="MSShapeGroup" x="462" y="502" width="241" height="40"></rect>
                <rect id="Rectangle-28" sketch:type="MSShapeGroup" x="249" y="582" width="454" height="40"></rect>
                <rect id="Rectangle-24" sketch:type="MSShapeGroup" x="16" y="661" width="1004" height="80"></rect>
                <rect id="Rectangle-30" sketch:type="MSShapeGroup" x="312" y="661" width="374" height="40"></rect>
                <rect id="Rectangle-9" sketch:type="MSShapeGroup" x="5" y="7" width="138" height="67"></rect>
                <rect id="Rectangle-1" sketch:type="MSShapeGroup" x="0" y="83" width="1028" height="32"></rect>
                <rect id="Rectangle-10" sketch:type="MSShapeGroup" x="4" y="90" width="106" height="25"></rect>
                <rect id="Rectangle-11" sketch:type="MSShapeGroup" x="227" y="146" width="124" height="23"></rect>
                <rect id="Rectangle-19" sketch:type="MSShapeGroup" x="16" y="146" width="198" height="23"></rect>
                <rect id="Rectangle-18" sketch:type="MSShapeGroup" x="453" y="146" width="80" height="23"></rect>
                <rect id="Rectangle-20" sketch:type="MSShapeGroup" x="453" y="169" width="344" height="162"></rect>
                <rect id="Rectangle-17" sketch:type="MSShapeGroup" x="227" y="169" width="214" height="150"></rect>
                <rect id="Rectangle-12" sketch:type="MSShapeGroup" x="16" y="169" width="198" height="128"></rect>
                <rect id="Rectangle-13" sketch:type="MSShapeGroup" x="23" y="177" width="181" height="19"></rect>
                <rect id="Rectangle-14" sketch:type="MSShapeGroup" x="41" y="207" width="163" height="19"></rect>
                <rect id="Rectangle-15" sketch:type="MSShapeGroup" x="63" y="236" width="141" height="19"></rect>
                <rect id="Rectangle-16" sketch:type="MSShapeGroup" x="83" y="266" width="121" height="19"></rect>
                <rect id="Rectangle-2" sketch:type="MSShapeGroup" x="152" y="54" width="87" height="29"></rect>
                <rect id="Rectangle-3" sketch:type="MSShapeGroup" x="247" y="54" width="80" height="29"></rect>
                <rect id="Rectangle-4" sketch:type="MSShapeGroup" x="337" y="54" width="82" height="29"></rect>
                <rect id="Rectangle-5" sketch:type="MSShapeGroup" x="427" y="54" width="102" height="29"></rect>
                <rect id="Rectangle-6" sketch:type="MSShapeGroup" x="537" y="54" width="112" height="29"></rect>
                <rect id="Rectangle-7" sketch:type="MSShapeGroup" x="656" y="54" width="124" height="29"></rect>
            </g>
        </g>
    </g>
</svg>