<?xml version="1.0" encoding="UTF-8" standalone="no"?>
<svg width="1000px" height="700px" viewBox="0 0 1000 700" version="1.1" xmlns="http://www.w3.org/2000/svg" xmlns:xlink="http://www.w3.org/1999/xlink" xmlns:sketch="http://www.bohemiancoding.com/sketch/ns">
    <!-- Generator: Sketch 3.0.1 (7597) - http://www.bohemiancoding.com/sketch -->
    <title>supersalon_home_preview</title>
    <description>Created with Sketch.</description>
    <defs></defs>
    <g id="Page-1" stroke="none" stroke-width="1" fill="none" fill-rule="evenodd" sketch:type="MSPage">
        <g id="artboard_supesalon_home_preview" sketch:type="MSArtboardGroup" stroke="#FFFFFF" stroke-width="3" fill="#FFFFFF" fill-opacity="0.300000012">
            <g id="grid" sketch:type="MSLayerGroup" transform="translate(-15.000000, 0.000000)">
                <rect id="Rectangle-8" sketch:type="MSShapeGroup" x="15" y="0" width="1009" height="709"></rect>
                <rect id="Rectangle-20" sketch:type="MSShapeGroup" x="284" y="212" width="200" height="239"></rect>
                <rect id="Rectangle-21" sketch:type="MSShapeGroup" x="557" y="212" width="200" height="239"></rect>
                <rect id="Rectangle-22" sketch:type="MSShapeGroup" x="834" y="212" width="200" height="239"></rect>
                <rect id="Rectangle-9" sketch:type="MSShapeGroup" x="374" y="14" width="283" height="58"></rect>
                <rect id="Rectangle-16" sketch:type="MSShapeGroup" x="15" y="0" width="1000" height="124"></rect>
                <rect id="Rectangle-17" sketch:type="MSShapeGroup" x="352" y="124" width="163" height="190"></rect>
                <rect id="Rectangle-18" sketch:type="MSShapeGroup" x="22" y="152" width="49" height="25"></rect>
                <rect id="Rectangle-19" sketch:type="MSShapeGroup" x="0" y="212" width="213" height="239"></rect>
                <rect id="Rectangle-23" sketch:type="MSShapeGroup" x="0" y="633" width="213" height="239"></rect>
                <rect id="Rectangle-24" sketch:type="MSShapeGroup" x="279" y="633" width="213" height="239"></rect>
                <rect id="Rectangle-25" sketch:type="MSShapeGroup" x="558" y="633" width="213" height="239"></rect>
                <rect id="Rectangle-26" sketch:type="MSShapeGroup" x="828" y="633" width="213" height="239"></rect>
                <rect id="Rectangle-27" sketch:type="MSShapeGroup" x="834" y="543" width="111" height="30"></rect>
                <rect id="Rectangle-28" sketch:type="MSShapeGroup" x="559" y="546" width="111" height="30"></rect>
                <rect id="Rectangle-29" sketch:type="MSShapeGroup" x="284" y="545" width="111" height="30"></rect>
                <rect id="Rectangle-31" sketch:type="MSShapeGroup" x="284" y="461" width="111" height="17"></rect>
                <rect id="Rectangle-32" sketch:type="MSShapeGroup" x="559" y="461" width="111" height="17"></rect>
                <rect id="Rectangle-33" sketch:type="MSShapeGroup" x="834" y="461" width="111" height="17"></rect>
                <rect id="Rectangle-34" sketch:type="MSShapeGroup" x="6" y="461" width="111" height="17"></rect>
                <rect id="Rectangle-30" sketch:type="MSShapeGroup" x="9" y="545" width="111" height="30"></rect>
                <rect id="Rectangle-10" sketch:type="MSShapeGroup" x="289" y="86" width="55" height="32"></rect>
                <rect id="Rectangle-11" sketch:type="MSShapeGroup" x="364" y="86" width="81" height="32"></rect>
                <rect id="Rectangle-12" sketch:type="MSShapeGroup" x="460" y="86" width="64" height="32"></rect>
                <rect id="Rectangle-13" sketch:type="MSShapeGroup" x="544" y="85" width="84" height="32"></rect>
                <rect id="Rectangle-14" sketch:type="MSShapeGroup" x="643" y="84" width="64" height="32"></rect>
                <rect id="Rectangle-15" sketch:type="MSShapeGroup" x="917" y="84" width="107" height="32"></rect>
            </g>
        </g>
    </g>
</svg>