<?xml version="1.0" encoding="UTF-8"?>
<svg width="15px" height="12px" viewBox="0 0 15 12" version="1.1" xmlns="http://www.w3.org/2000/svg" xmlns:xlink="http://www.w3.org/1999/xlink">
    <!-- Generator: Sketch 44.1 (41455) - http://www.bohemiancoding.com/sketch -->
    <title>twitterbird</title>
    <desc>Created with Sketch.</desc>
    <defs></defs>
    <g id="home-3" stroke="none" stroke-width="1" fill="none" fill-rule="evenodd">
        <g id="iPad" transform="translate(-643.000000, -283.000000)" fill="#000">
            <g id="twitterbird" transform="translate(643.000000, 283.000000)">
                <path d="M14.7692308,1.4292804 C14.2332506,1.64759119 13.6476421,1.80640042 13.0124069,1.9057072 C13.6674938,1.50868456 14.1141439,0.942927737 14.3523573,0.208436725 C14.0545906,0.387096774 13.7468989,0.540942625 13.4292804,0.669975186 C13.1116619,0.799007747 12.7741935,0.893300248 12.4168734,0.952853598 C12.1389584,0.655086849 11.811415,0.421835925 11.4342432,0.253101737 C11.0571331,0.0843675486 10.6501847,0 10.2133995,0 C9.79652605,0 9.4044668,0.0794041636 9.03722084,0.2382134 C8.66998851,0.396966295 8.34740757,0.615328881 8.06947891,0.893300248 C7.79161295,1.17120255 7.57325037,1.4937835 7.41439206,1.86104218 C7.25558282,2.22828814 7.17617866,2.62034739 7.17617866,3.03722084 C7.17617866,3.25558343 7.20595533,3.48387097 7.26550868,3.72208437 C6.01488834,3.66253102 4.85359801,3.34987593 3.78163772,2.78411911 C2.70967742,2.21836228 1.7965259,1.47890789 1.04218362,0.565756824 C0.764268142,1.02233281 0.625310174,1.52853628 0.625310174,2.08436725 C0.625310174,2.60049658 0.749379804,3.07692338 0.99751861,3.51364764 C1.24565605,3.95037191 1.56823655,4.307692 1.96526055,4.58560794 C1.70719588,4.58560794 1.46898248,4.55086879 1.25062035,4.48138958 C1.03225822,4.41191037 0.81389563,4.32754373 0.595533499,4.22828784 L0.595533499,4.25806452 C0.595533499,4.99255553 0.823821491,5.63275404 1.28039702,6.17866005 C1.73696574,6.7245497 2.31264797,7.07690733 3.00744417,7.23573201 C2.76923077,7.29528536 2.51116656,7.32506203 2.23325062,7.32506203 L1.95037221,7.32506203 C1.86104218,7.32506203 1.76674923,7.30521122 1.6674938,7.26550868 C1.86600511,7.88089345 2.21836228,8.382134 2.72456576,8.76923077 C3.23076923,9.15632754 3.82134025,9.35980134 4.49627792,9.37965261 C3.98014858,9.77667479 3.39950342,10.0942928 2.75434243,10.3325062 C2.10918099,10.5707196 1.4292804,10.6898263 0.714640199,10.6898263 C0.595533499,10.6898263 0.476426799,10.6848634 0.357320099,10.674938 C0.2382134,10.6650126 0.1191067,10.6501242 0,10.630273 C0.674938117,11.0669977 1.39950372,11.4044665 2.17369727,11.6426799 C2.94789082,11.8808933 3.77171186,12 4.64516129,12 C6.03473915,12 7.26550868,11.7369724 8.33746898,11.2109181 C9.40940111,10.6848634 10.3076638,10.0099257 11.0322581,9.18610422 C11.7568232,8.36228273 12.3076917,7.43920626 12.6848635,6.41687345 C13.0620353,5.39454064 13.2506203,4.38709708 13.2506203,3.39454094 L13.2506203,2.97766749 C13.8263021,2.58064486 14.3325056,2.06451643 14.7692308,1.4292804 Z"></path>
            </g>
        </g>
    </g>
</svg>