<?xml version="1.0" encoding="utf-8"?>
<!-- Generator: Adobe Illustrator 15.1.0, SVG Export Plug-In . SVG Version: 6.00 Build 0)  -->
<!DOCTYPE svg PUBLIC "-//W3C//DTD SVG 1.1//EN" "http://www.w3.org/Graphics/SVG/1.1/DTD/svg11.dtd">
<svg version="1.1" id="Layer_1" xmlns="http://www.w3.org/2000/svg" xmlns:xlink="http://www.w3.org/1999/xlink" x="0px" y="0px"
	 width="51.75px" height="18px" viewBox="0 0 51.75 18" enable-background="new 0 0 51.75 18" xml:space="preserve">
<g id="_x37_QAPkR.tif">
	<g>
		<g>
			<path fill-rule="evenodd" clip-rule="evenodd" fill="#666666" d="M15.328,1.453c1.476-0.941,3.092-1.081,4.219-0.067
				c0.926,0.833,1.159,2.523,1.54,4.285c0.402,1.857,0.99,3.436,0.937,4.888c-0.006,0.165-0.03,0.548-0.067,0.669
				c-0.065,0.214-0.355,0.365-0.467,0.671c-0.109,0.291-0.037,0.704-0.135,0.936c-0.186,0.446-0.974,1.118-1.405,1.54
				c-0.544,0.533-1.088,0.919-1.607,1.34c-1.181,0.958-2.146,2.055-3.817,2.076c-1.758,0.02-2.699-1.216-3.347-2.745
				c-0.227,0.294-0.484,0.663-0.87,0.87c-2.008,1.065-5.274,0.29-5.156-2.144c-0.235,1.033-2.145,1.567-3.214,1.14
				c-1.374-0.553-1.387-4.591-1.272-6.562c0.163-2.76,0.495-5.085,1.809-6.093c0.879-0.007,1.781-0.04,2.41,0.202
				c0.619-1.661,4.502-1.881,5.757-0.604C11.28,0.46,14.307,0.245,15.328,1.453z M13.924,1.453c-0.571,0.056-0.989-0.079-1.34,0
				c-1.23,0.277-1.014,1.787-1.807,2.476c-0.609-0.235-0.479-0.93-0.803-1.337c-0.736-0.927-3.3-1.212-4.084,0
				c-0.396,0.61-0.174,1.293-1.004,1.405c-0.28-0.145-0.239-0.608-0.537-0.736C3.723,3.225,3.36,3.194,2.811,3.193
				c-1.042,0.888-1.446,3.126-1.54,5.156c-0.1,2.145,0.026,4.477,1.138,5.557c2.307,0.598,2.321-1.458,2.41-3.482
				c0.043-0.998-0.36-2.353,0.603-2.543c0.518,1.022,0.212,2.271,0.267,3.482c0.09,1.961,0.489,4.784,3.08,3.949
				c1.323-0.426,1.395-2.038,1.473-3.815c0.047-1.056-0.114-4.417,0.536-4.419c0.537-0.002,0.358,0.854,0.335,1.406
				c-0.058,1.33-0.222,3.905-0.134,4.82c0.032,0.342,0.354,0.946,0.669,1.138c1.588,0.975,3.474-0.122,3.482-1.873
				c-2.077-0.803-1.123-3.253-0.67-5.423c0.115-0.547,0.179-1.115,0.335-1.875c0.108-0.523,0.165-1.668,0.736-1.54
				c0.501,0.113,0.095,1.121,0,1.54c-0.151,0.662-0.277,1.184-0.401,1.741c-0.209,0.929-0.835,2.616-0.67,3.481
				c0.474,2.48,5.966,2.62,6.628,0.201c0.293-1.07-0.438-2.875-0.736-4.352c-0.3-1.485-0.399-2.885-0.937-3.749
				c-0.849-1.364-2.786-1.576-4.152-0.202C14.854,2.041,14.391,1.744,13.924,1.453z M15.798,12.833
				c-0.16,1.898-1.492,2.892-3.615,2.612c0.146,0.523,0.505,0.834,0.87,1.137c0.358-1.023,2.759-1.682,3.281-0.4
				c1.389-1.134,3.172-2.229,4.083-3.615C19.416,13.178,17.121,13.161,15.798,12.833z M13.722,16.783
				c0.053,0.016,0.078,0.057,0.067,0.135c0.789,0.201,1.58-0.154,2.076-0.47c-0.151-0.138-0.191-0.388-0.335-0.534
				C14.75,16.025,13.871,16.04,13.722,16.783z"/>
			<path fill-rule="evenodd" clip-rule="evenodd" fill="#666666" d="M19.681,6.34c-1.057,0.301-2.622,0.245-3.549-0.134
				C16.945,5.57,19.026,5.612,19.681,6.34z"/>
			<path fill-rule="evenodd" clip-rule="evenodd" fill="#666666" d="M19.212,7.746c0.56,0.618,1.38,1.222,1.273,2.343
				c-0.186,1.93-4.874,1.955-5.356,0.269c-0.275-0.963,0.303-2.324,1.137-2.612C17.089,7.463,18.143,7.774,19.212,7.746z
				 M15.501,9.965c0.354,1.415,4.393,1.339,4.617-0.077c0.146-0.927-0.603-1.356-1.133-1.858C16.747,7.75,15.087,8.321,15.501,9.965
				z"/>
		</g>
	</g>
</g>
<g>
	<g>
		<path fill-rule="evenodd" clip-rule="evenodd" fill="#666666" d="M37.392,13.791c-5.903-0.2-11.543-3.641-11.414-4.451
			c0.143-0.891,4.154,3.931,12.731,3.653c2.843-0.092,7.483-2.78,7.493-4.537c0.01-1.99-3.009-3.347-4.767-4.264
			c4.33,9.615-12.552,9.092-8.028,0c-3.226-0.551-8.173,6.43-7.501,4.935C30.644-1.417,46.19,0.777,48.202,9.803
			C48.333,10.39,43.254,13.992,37.392,13.791z M39.108,7.229c0,0.936-0.822,1.696-1.835,1.696c-1.014,0-1.836-0.76-1.836-1.696
			s0.822-1.695,1.836-1.695C38.286,5.534,39.108,6.293,39.108,7.229z"/>
	</g>
</g>
</svg>
