<?xml version="1.0" encoding="utf-8"?>
<!-- Generator: Adobe Illustrator 15.0.0, SVG Export Plug-In . SVG Version: 6.00 Build 0)  -->
<svg version="1.2" baseProfile="tiny" id="Layer_1" xmlns:sketch="http://www.bohemiancoding.com/sketch/ns"
	 xmlns="http://www.w3.org/2000/svg" xmlns:xlink="http://www.w3.org/1999/xlink" x="0px" y="0px" width="345px" height="267px"
	 viewBox="0 0 345 267" overflow="inherit" xml:space="preserve">
<title>arrow_previous</title>
<description>Created with Sketch (http://www.bohemiancoding.com/sketch)</description>
<g id="Page_1">
	<g id="arrow_previous">
		
			<g id="Group" transform="translate(172.500000, 134.000000) scale(1, -1) rotate(-90.000000) translate(-172.500000, -134.000000) translate(39.000000, -38.500000)">
			<path id="path4109" fill="#FFFFFF" d="M78.544,0.426l-0.151,15.495L62.86,16.222l-0.125,140.056l-15.583,0.251l-0.025-15.545
				l-46.9,0.05v46.66l16.21-0.199l-0.577,16.021l14.906,0.276l0.678,30.789l15.483,0.326l0.226,30.889l15.985-0.1l-0.352,31.315
				l15.232,0.176l0.326,46.685l156.311-0.074l0.226-46.686l15.382-0.051l0.201-46.184l15.383-0.602l-0.101-109.417l-15.282-0.101
				l-0.125-15.144l-15.434-0.351l-0.351-15.545l-31.066-0.125l-0.101-15.119l-46.649-0.476l-0.352-15.47l-30.991-0.226
				l-0.176-62.055h-15.583l-0.352-15.821H78.544L78.544,0.426L78.544,0.426z"/>
			<path id="path3016" fill="#1C1C1C" d="M78.534,0.421l30.745,0.01l0.372,15.445l-31.247,0.101L78.534,0.421L78.534,0.421
				L78.534,0.421z"/>
			<path id="path3018" fill="#1C1C1C" d="M62.855,16.217l15.548-0.24l0.04,171.768l-15.659,0.01l-0.03-15.395l-15.568-0.15
				l-0.01-15.715l15.558-0.21L62.855,16.217L62.855,16.217L62.855,16.217z"/>
			<path id="path3020" fill="#1C1C1C" d="M125.219,16.247l0.151,62.11l31.016,0.171l0.302,15.495l46.694,0.451l0.08,15.134
				l31.097,0.11l0.291,15.565l15.479,0.331l0.09,15.164l15.327,0.09l0.091,109.417l-15.378,0.572l-0.2,46.193l-15.357,0.08
				l-0.161-47.025l15.468,0.01l0.061-109.207h-15.448l-0.371-15.214l-15.488-0.401l-0.13,46.856l-15.308,0.02l-0.12-62.491h-31.338
				l-0.02,46.806l-15.519,0.01l0.13-62.441l-31.367,0.06v62.371l-15.699,0.01l0.121-140.256L125.219,16.247L125.219,16.247z"/>
			<path id="path3026" fill="#1C1C1C" d="M0.231,141.029l46.896-0.05l0.05,15.515l-31.097,0.14l-0.15,30.95l-15.709,0.1
				L0.231,141.029L0.231,141.029L0.231,141.029z"/>
			<path id="path3030" fill="#1C1C1C" d="M16.351,187.935l15.177-0.341l0.07,15.635l15.649,0.091l0.06,31.14l15.468,0.051
				l-0.391,31.261l-15.237,0.021l-0.231-30.87l-15.478-0.331l-0.602-30.738L15.87,203.52L16.351,187.935L16.351,187.935
				L16.351,187.935z"/>
			<path id="path3038" fill="#1C1C1C" d="M63.096,265.84l15.348-0.13l0.04,31.07l15.628,0.16l0.061,31.091l124.696,0.06l0.07-31.12
				l15.961,0.16l-0.242,46.666l-156.305,0.07l-0.331-46.656l-15.237-0.189L63.096,265.84L63.096,265.84L63.096,265.84z"/>
		</g>
	</g>
</g>
</svg>
