<?xml version="1.0" encoding="utf-8"?>
<!-- Generator: Adobe Illustrator 15.1.0, SVG Export Plug-In . SVG Version: 6.00 Build 0)  -->
<!DOCTYPE svg PUBLIC "-//W3C//DTD SVG 1.1//EN" "http://www.w3.org/Graphics/SVG/1.1/DTD/svg11.dtd">
<svg version="1.1" id="Layer_1" xmlns="http://www.w3.org/2000/svg" xmlns:xlink="http://www.w3.org/1999/xlink" x="0px" y="0px"
	 width="200.833px" height="70px" viewBox="0 0 200.833 70" enable-background="new 0 0 200.833 70" xml:space="preserve">
<g>
	<path d="M3.226,33.438l-0.337-0.337V22.603l0.337-0.225h1.275l0.337,0.225v9.035h11.209V8.319H10.2L9.825,7.944V6.932L10.2,6.557
		h13.309l0.337,0.375v1.012l-0.337,0.375h-5.324v24.781l-0.45,0.337H3.226z"/>
	<path d="M29.504,33.438l-0.337-0.375V22.866l0.337-0.263h12.185v-5.699H31.641v3.449l-0.3,0.263h-1.275l-0.3-0.263V15.48l0.3-0.413
		H43.3l0.337,0.413v16.196h4.162l0.337,0.375v1.012l-0.337,0.375H29.504z M31.003,24.29v7.386h10.685V24.29H31.003z"/>
	<path d="M51.432,33.438l-0.338-0.3v-1.05l0.338-0.413h3.861V16.83h-4.312l-0.262-0.375V15.48l0.262-0.413h18.146l0.375,0.413
		v16.196h4.499l0.3,0.413v1.05l-0.3,0.3H63.767l-0.337-0.3v-1.05l0.337-0.413h3.749V16.83H57.318v14.846h3.712l0.337,0.413v1.05
		l-0.337,0.3H51.432z"/>
	<path d="M2.514,65.538l-0.337-0.413V64.15l0.337-0.413h5.474V40.419H2.514l-0.337-0.375v-1.012l0.337-0.375h25.082l0.413,0.375
		v26.093l-0.413,0.413H2.514z M9.975,40.419v23.319h15.896V40.419H9.975z"/>
	<path d="M33.889,65.538l-0.337-0.375l0.037-1.087l0.3-0.3h3.937V48.967h-4.461l-0.337-0.375v-1.05l0.337-0.375h15.409l0.3,0.375
		v8.286l-0.3,0.3h-1.35l-0.3-0.3v-6.861H39.85v14.809h4.461l0.337,0.3v1.087l-0.337,0.375H33.889z"/>
	<path d="M54.694,65.538l-0.337-0.413V47.58l0.337-0.413h13.684l0.3,0.413v8.548l-0.3,0.375H56.306v7.235h10.46v-4.536l0.3-0.3
		h1.312l0.3,0.3v5.923l-0.3,0.413H54.694z M56.306,48.967v5.886h10.46v-5.886H56.306z"/>
	<path d="M83.034,65.538l-5.249-16.571h-4.311l-0.337-0.375v-0.975l0.337-0.45h9.485l0.45,0.45v0.975l-0.45,0.375H79.81
		l4.724,14.809h2.475l3.937-11.884l-0.975-2.924H86.22l-0.412-0.375v-0.975l0.412-0.45h9.785l0.337,0.45v0.975l-0.337,0.375h-4.049
		l4.686,14.809h2.549l4.949-14.809h-3.375l-0.3-0.375v-0.975l0.3-0.45h9.036l0.375,0.45v0.975l-0.375,0.375h-3.787l-5.511,16.571
		h-5.286l-3.337-10.685l-3.524,10.685H83.034z"/>
	<path d="M113.208,65.538l-0.337-0.3v-1.05l0.337-0.413h3.861V48.929h-4.312l-0.262-0.375V47.58l0.262-0.413h18.146l0.375,0.413
		v16.196h4.499l0.3,0.413v1.05l-0.3,0.3h-10.235l-0.337-0.3v-1.05l0.337-0.413h3.749V48.929h-10.198v14.846h3.712l0.337,0.413v1.05
		l-0.337,0.3H113.208z"/>
	<path d="M138.473,65.538l-0.337-0.337v-1.087l0.337-0.337h4.199V49.042h-4.611l-0.3-0.3v-1.237l0.3-0.337h6.336l0.225,0.337v16.271
		h4.274l0.337,0.337V65.2l-0.337,0.337H138.473z M142.409,43.831l-0.262-0.263v-4.312l0.262-0.375h1.649l0.3,0.375v4.312l-0.3,0.263
		H142.409z"/>
	<path d="M153.767,65.538l-0.337-0.375V54.965l0.337-0.263h12.185v-5.699h-10.048v3.449l-0.3,0.263h-1.275l-0.3-0.263V47.58
		l0.3-0.413h13.234l0.337,0.413v16.196h4.162l0.337,0.375v1.012l-0.337,0.375H153.767z M155.267,56.39v7.386h10.685V56.39H155.267z"
		/>
	<path d="M175.846,65.538l-0.3-0.413V64.15l0.3-0.413h3.937V40.419h-4.424l-0.3-0.413v-0.975l0.3-0.375h6.149l0.225,0.375v17.846
		l9.148-7.911h-4.124l-0.3-0.375V47.58l0.3-0.413h10.722l0.337,0.413v1.012l-0.337,0.375h-4.161l-6.336,5.474l8.135,9.297h3.524
		l0.3,0.413v0.975l-0.3,0.413h-9.673l-0.375-0.413V64.15l0.375-0.413h3.711l-7.085-8.135l-3.862,3.412v4.724h3.412l0.337,0.413
		v0.975l-0.337,0.413H175.846z"/>
</g>
</svg>
